<?xml version="1.0" encoding="utf-8" standalone="no"?>
<!DOCTYPE svg PUBLIC "-//W3C//DTD SVG 1.1//EN"
  "http://www.w3.org/Graphics/SVG/1.1/DTD/svg11.dtd">
<!-- Created with matplotlib (https://matplotlib.org/) -->
<svg height="515.45875pt" version="1.1" viewBox="0 0 625.88 515.45875" width="625.88pt" xmlns="http://www.w3.org/2000/svg" xmlns:xlink="http://www.w3.org/1999/xlink">
 <defs>
  <style type="text/css">
*{stroke-linecap:butt;stroke-linejoin:round;white-space:pre;}
  </style>
 </defs>
 <g id="figure_1">
  <g id="patch_1">
   <path d="M 0 515.45875 
L 625.88 515.45875 
L 625.88 0 
L 0 0 
z
" style="fill:#ffffff;"/>
  </g>
  <g id="axes_1">
   <g id="patch_2">
    <path d="M 143.9 470.16 
L 590.3 470.16 
L 590.3 26.64 
L 143.9 26.64 
z
" style="fill:#ffffff;"/>
   </g>
   <g id="patch_3">
    <path clip-path="url(#p038f26ccc6)" d="M 143.9 450 
L 533.593793 450 
L 533.593793 440.165854 
L 143.9 440.165854 
z
" style="fill:#800080;"/>
   </g>
   <g id="patch_4">
    <path clip-path="url(#p038f26ccc6)" d="M 143.9 437.707317 
L 533.5957 437.707317 
L 533.5957 427.873171 
L 143.9 427.873171 
z
" style="fill:#800080;"/>
   </g>
   <g id="patch_5">
    <path clip-path="url(#p038f26ccc6)" d="M 143.9 425.414634 
L 419.61174 425.414634 
L 419.61174 415.580488 
L 143.9 415.580488 
z
" style="fill:#800080;"/>
   </g>
   <g id="patch_6">
    <path clip-path="url(#p038f26ccc6)" d="M 143.9 400.829268 
L 491.152095 400.829268 
L 491.152095 390.995122 
L 143.9 390.995122 
z
" style="fill:#0000ff;"/>
   </g>
   <g id="patch_7">
    <path clip-path="url(#p038f26ccc6)" d="M 143.9 388.536585 
L 491.1461 388.536585 
L 491.1461 378.702439 
L 143.9 378.702439 
z
" style="fill:#0000ff;"/>
   </g>
   <g id="patch_8">
    <path clip-path="url(#p038f26ccc6)" d="M 143.9 376.243902 
L 513.405666 376.243902 
L 513.405666 366.409756 
L 143.9 366.409756 
z
" style="fill:#0000ff;"/>
   </g>
   <g id="patch_9">
    <path clip-path="url(#p038f26ccc6)" d="M 143.9 351.658537 
L 491.22473 351.658537 
L 491.22473 341.82439 
L 143.9 341.82439 
z
" style="fill:#00ffff;"/>
   </g>
   <g id="patch_10">
    <path clip-path="url(#p038f26ccc6)" d="M 143.9 339.365854 
L 491.073465 339.365854 
L 491.073465 329.531707 
L 143.9 329.531707 
z
" style="fill:#00ffff;"/>
   </g>
   <g id="patch_11">
    <path clip-path="url(#p038f26ccc6)" d="M 143.9 327.073171 
L 513.405666 327.073171 
L 513.405666 317.239024 
L 143.9 317.239024 
z
" style="fill:#00ffff;"/>
   </g>
   <g id="patch_12">
    <path clip-path="url(#p038f26ccc6)" d="M 143.9 302.487805 
L 551.596217 302.487805 
L 551.596217 292.653659 
L 143.9 292.653659 
z
" style="fill:#32cd32;"/>
   </g>
   <g id="patch_13">
    <path clip-path="url(#p038f26ccc6)" d="M 143.9 290.195122 
L 532.064145 290.195122 
L 532.064145 280.360976 
L 143.9 280.360976 
z
" style="fill:#32cd32;"/>
   </g>
   <g id="patch_14">
    <path clip-path="url(#p038f26ccc6)" d="M 143.9 277.902439 
L 237.735652 277.902439 
L 237.735652 268.068293 
L 143.9 268.068293 
z
" style="fill:#32cd32;"/>
   </g>
   <g id="patch_15">
    <path clip-path="url(#p038f26ccc6)" d="M 143.9 265.609756 
L 435.809108 265.609756 
L 435.809108 255.77561 
L 143.9 255.77561 
z
" style="fill:#32cd32;"/>
   </g>
   <g id="patch_16">
    <path clip-path="url(#p038f26ccc6)" d="M 143.9 253.317073 
L 527.864507 253.317073 
L 527.864507 243.482927 
L 143.9 243.482927 
z
" style="fill:#32cd32;"/>
   </g>
   <g id="patch_17">
    <path clip-path="url(#p038f26ccc6)" d="M 143.9 241.02439 
L 488.434173 241.02439 
L 488.434173 231.190244 
L 143.9 231.190244 
z
" style="fill:#32cd32;"/>
   </g>
   <g id="patch_18">
    <path clip-path="url(#p038f26ccc6)" d="M 143.9 228.731707 
L 498.165399 228.731707 
L 498.165399 218.897561 
L 143.9 218.897561 
z
" style="fill:#32cd32;"/>
   </g>
   <g id="patch_19">
    <path clip-path="url(#p038f26ccc6)" d="M 143.9 216.439024 
L 562.027809 216.439024 
L 562.027809 206.604878 
L 143.9 206.604878 
z
" style="fill:#32cd32;"/>
   </g>
   <g id="patch_20">
    <path clip-path="url(#p038f26ccc6)" d="M 143.9 204.146341 
L 546.156408 204.146341 
L 546.156408 194.312195 
L 143.9 194.312195 
z
" style="fill:#32cd32;"/>
   </g>
   <g id="patch_21">
    <path clip-path="url(#p038f26ccc6)" d="M 143.9 191.853659 
L 531.403269 191.853659 
L 531.403269 182.019512 
L 143.9 182.019512 
z
" style="fill:#32cd32;"/>
   </g>
   <g id="patch_22">
    <path clip-path="url(#p038f26ccc6)" d="M 143.9 179.560976 
L 520.682358 179.560976 
L 520.682358 169.726829 
L 143.9 169.726829 
z
" style="fill:#32cd32;"/>
   </g>
   <g id="patch_23">
    <path clip-path="url(#p038f26ccc6)" d="M 143.9 167.268293 
L 515.265887 167.268293 
L 515.265887 157.434146 
L 143.9 157.434146 
z
" style="fill:#32cd32;"/>
   </g>
   <g id="patch_24">
    <path clip-path="url(#p038f26ccc6)" d="M 143.9 142.682927 
L 444.253568 142.682927 
L 444.253568 132.84878 
L 143.9 132.84878 
z
" style="fill:#ffff00;"/>
   </g>
   <g id="patch_25">
    <path clip-path="url(#p038f26ccc6)" d="M 143.9 130.390244 
L 546.947254 130.390244 
L 546.947254 120.556098 
L 143.9 120.556098 
z
" style="fill:#ffff00;"/>
   </g>
   <g id="patch_26">
    <path clip-path="url(#p038f26ccc6)" d="M 143.9 105.804878 
L 502.459183 105.804878 
L 502.459183 95.970732 
L 143.9 95.970732 
z
" style="fill:#ffa500;"/>
   </g>
   <g id="patch_27">
    <path clip-path="url(#p038f26ccc6)" d="M 143.9 93.512195 
L 488.741639 93.512195 
L 488.741639 83.678049 
L 143.9 83.678049 
z
" style="fill:#ffa500;"/>
   </g>
   <g id="patch_28">
    <path clip-path="url(#p038f26ccc6)" d="M 143.9 68.926829 
L 486.876325 68.926829 
L 486.876325 59.092683 
L 143.9 59.092683 
z
" style="fill:#ff0000;"/>
   </g>
   <g id="patch_29">
    <path clip-path="url(#p038f26ccc6)" d="M 143.9 56.634146 
L 504.324497 56.634146 
L 504.324497 46.8 
L 143.9 46.8 
z
" style="fill:#ff0000;"/>
   </g>
   <g id="matplotlib.axis_1">
    <g id="xtick_1">
     <g id="line2d_1">
      <defs>
       <path d="M 0 0 
L 0 3.5 
" id="m625407c38f" style="stroke:#000000;stroke-width:0.8;"/>
      </defs>
      <g>
       <use style="stroke:#000000;stroke-width:0.8;" x="143.9" xlink:href="#m625407c38f" y="470.16"/>
      </g>
     </g>
     <g id="text_1">
      <!-- 0.0 -->
      <defs>
       <path d="M 31.78125 66.40625 
Q 24.171875 66.40625 20.328125 58.90625 
Q 16.5 51.421875 16.5 36.375 
Q 16.5 21.390625 20.328125 13.890625 
Q 24.171875 6.390625 31.78125 6.390625 
Q 39.453125 6.390625 43.28125 13.890625 
Q 47.125 21.390625 47.125 36.375 
Q 47.125 51.421875 43.28125 58.90625 
Q 39.453125 66.40625 31.78125 66.40625 
z
M 31.78125 74.21875 
Q 44.046875 74.21875 50.515625 64.515625 
Q 56.984375 54.828125 56.984375 36.375 
Q 56.984375 17.96875 50.515625 8.265625 
Q 44.046875 -1.421875 31.78125 -1.421875 
Q 19.53125 -1.421875 13.0625 8.265625 
Q 6.59375 17.96875 6.59375 36.375 
Q 6.59375 54.828125 13.0625 64.515625 
Q 19.53125 74.21875 31.78125 74.21875 
z
" id="DejaVuSans-48"/>
       <path d="M 10.6875 12.40625 
L 21 12.40625 
L 21 0 
L 10.6875 0 
z
" id="DejaVuSans-46"/>
      </defs>
      <g transform="translate(132.767812 487.797813)scale(0.14 -0.14)">
       <use xlink:href="#DejaVuSans-48"/>
       <use x="63.623047" xlink:href="#DejaVuSans-46"/>
       <use x="95.410156" xlink:href="#DejaVuSans-48"/>
      </g>
     </g>
    </g>
    <g id="xtick_2">
     <g id="line2d_2">
      <g>
       <use style="stroke:#000000;stroke-width:0.8;" x="233.18" xlink:href="#m625407c38f" y="470.16"/>
      </g>
     </g>
     <g id="text_2">
      <!-- 0.2 -->
      <defs>
       <path d="M 19.1875 8.296875 
L 53.609375 8.296875 
L 53.609375 0 
L 7.328125 0 
L 7.328125 8.296875 
Q 12.9375 14.109375 22.625 23.890625 
Q 32.328125 33.6875 34.8125 36.53125 
Q 39.546875 41.84375 41.421875 45.53125 
Q 43.3125 49.21875 43.3125 52.78125 
Q 43.3125 58.59375 39.234375 62.25 
Q 35.15625 65.921875 28.609375 65.921875 
Q 23.96875 65.921875 18.8125 64.3125 
Q 13.671875 62.703125 7.8125 59.421875 
L 7.8125 69.390625 
Q 13.765625 71.78125 18.9375 73 
Q 24.125 74.21875 28.421875 74.21875 
Q 39.75 74.21875 46.484375 68.546875 
Q 53.21875 62.890625 53.21875 53.421875 
Q 53.21875 48.921875 51.53125 44.890625 
Q 49.859375 40.875 45.40625 35.40625 
Q 44.1875 33.984375 37.640625 27.21875 
Q 31.109375 20.453125 19.1875 8.296875 
z
" id="DejaVuSans-50"/>
      </defs>
      <g transform="translate(222.047813 487.797813)scale(0.14 -0.14)">
       <use xlink:href="#DejaVuSans-48"/>
       <use x="63.623047" xlink:href="#DejaVuSans-46"/>
       <use x="95.410156" xlink:href="#DejaVuSans-50"/>
      </g>
     </g>
    </g>
    <g id="xtick_3">
     <g id="line2d_3">
      <g>
       <use style="stroke:#000000;stroke-width:0.8;" x="322.46" xlink:href="#m625407c38f" y="470.16"/>
      </g>
     </g>
     <g id="text_3">
      <!-- 0.4 -->
      <defs>
       <path d="M 37.796875 64.3125 
L 12.890625 25.390625 
L 37.796875 25.390625 
z
M 35.203125 72.90625 
L 47.609375 72.90625 
L 47.609375 25.390625 
L 58.015625 25.390625 
L 58.015625 17.1875 
L 47.609375 17.1875 
L 47.609375 0 
L 37.796875 0 
L 37.796875 17.1875 
L 4.890625 17.1875 
L 4.890625 26.703125 
z
" id="DejaVuSans-52"/>
      </defs>
      <g transform="translate(311.327813 487.797813)scale(0.14 -0.14)">
       <use xlink:href="#DejaVuSans-48"/>
       <use x="63.623047" xlink:href="#DejaVuSans-46"/>
       <use x="95.410156" xlink:href="#DejaVuSans-52"/>
      </g>
     </g>
    </g>
    <g id="xtick_4">
     <g id="line2d_4">
      <g>
       <use style="stroke:#000000;stroke-width:0.8;" x="411.74" xlink:href="#m625407c38f" y="470.16"/>
      </g>
     </g>
     <g id="text_4">
      <!-- 0.6 -->
      <defs>
       <path d="M 33.015625 40.375 
Q 26.375 40.375 22.484375 35.828125 
Q 18.609375 31.296875 18.609375 23.390625 
Q 18.609375 15.53125 22.484375 10.953125 
Q 26.375 6.390625 33.015625 6.390625 
Q 39.65625 6.390625 43.53125 10.953125 
Q 47.40625 15.53125 47.40625 23.390625 
Q 47.40625 31.296875 43.53125 35.828125 
Q 39.65625 40.375 33.015625 40.375 
z
M 52.59375 71.296875 
L 52.59375 62.3125 
Q 48.875 64.0625 45.09375 64.984375 
Q 41.3125 65.921875 37.59375 65.921875 
Q 27.828125 65.921875 22.671875 59.328125 
Q 17.53125 52.734375 16.796875 39.40625 
Q 19.671875 43.65625 24.015625 45.921875 
Q 28.375 48.1875 33.59375 48.1875 
Q 44.578125 48.1875 50.953125 41.515625 
Q 57.328125 34.859375 57.328125 23.390625 
Q 57.328125 12.15625 50.6875 5.359375 
Q 44.046875 -1.421875 33.015625 -1.421875 
Q 20.359375 -1.421875 13.671875 8.265625 
Q 6.984375 17.96875 6.984375 36.375 
Q 6.984375 53.65625 15.1875 63.9375 
Q 23.390625 74.21875 37.203125 74.21875 
Q 40.921875 74.21875 44.703125 73.484375 
Q 48.484375 72.75 52.59375 71.296875 
z
" id="DejaVuSans-54"/>
      </defs>
      <g transform="translate(400.607813 487.797813)scale(0.14 -0.14)">
       <use xlink:href="#DejaVuSans-48"/>
       <use x="63.623047" xlink:href="#DejaVuSans-46"/>
       <use x="95.410156" xlink:href="#DejaVuSans-54"/>
      </g>
     </g>
    </g>
    <g id="xtick_5">
     <g id="line2d_5">
      <g>
       <use style="stroke:#000000;stroke-width:0.8;" x="501.02" xlink:href="#m625407c38f" y="470.16"/>
      </g>
     </g>
     <g id="text_5">
      <!-- 0.8 -->
      <defs>
       <path d="M 31.78125 34.625 
Q 24.75 34.625 20.71875 30.859375 
Q 16.703125 27.09375 16.703125 20.515625 
Q 16.703125 13.921875 20.71875 10.15625 
Q 24.75 6.390625 31.78125 6.390625 
Q 38.8125 6.390625 42.859375 10.171875 
Q 46.921875 13.96875 46.921875 20.515625 
Q 46.921875 27.09375 42.890625 30.859375 
Q 38.875 34.625 31.78125 34.625 
z
M 21.921875 38.8125 
Q 15.578125 40.375 12.03125 44.71875 
Q 8.5 49.078125 8.5 55.328125 
Q 8.5 64.0625 14.71875 69.140625 
Q 20.953125 74.21875 31.78125 74.21875 
Q 42.671875 74.21875 48.875 69.140625 
Q 55.078125 64.0625 55.078125 55.328125 
Q 55.078125 49.078125 51.53125 44.71875 
Q 48 40.375 41.703125 38.8125 
Q 48.828125 37.15625 52.796875 32.3125 
Q 56.78125 27.484375 56.78125 20.515625 
Q 56.78125 9.90625 50.3125 4.234375 
Q 43.84375 -1.421875 31.78125 -1.421875 
Q 19.734375 -1.421875 13.25 4.234375 
Q 6.78125 9.90625 6.78125 20.515625 
Q 6.78125 27.484375 10.78125 32.3125 
Q 14.796875 37.15625 21.921875 38.8125 
z
M 18.3125 54.390625 
Q 18.3125 48.734375 21.84375 45.5625 
Q 25.390625 42.390625 31.78125 42.390625 
Q 38.140625 42.390625 41.71875 45.5625 
Q 45.3125 48.734375 45.3125 54.390625 
Q 45.3125 60.0625 41.71875 63.234375 
Q 38.140625 66.40625 31.78125 66.40625 
Q 25.390625 66.40625 21.84375 63.234375 
Q 18.3125 60.0625 18.3125 54.390625 
z
" id="DejaVuSans-56"/>
      </defs>
      <g transform="translate(489.887812 487.797813)scale(0.14 -0.14)">
       <use xlink:href="#DejaVuSans-48"/>
       <use x="63.623047" xlink:href="#DejaVuSans-46"/>
       <use x="95.410156" xlink:href="#DejaVuSans-56"/>
      </g>
     </g>
    </g>
    <g id="xtick_6">
     <g id="line2d_6">
      <g>
       <use style="stroke:#000000;stroke-width:0.8;" x="590.3" xlink:href="#m625407c38f" y="470.16"/>
      </g>
     </g>
     <g id="text_6">
      <!-- 1.0 -->
      <defs>
       <path d="M 12.40625 8.296875 
L 28.515625 8.296875 
L 28.515625 63.921875 
L 10.984375 60.40625 
L 10.984375 69.390625 
L 28.421875 72.90625 
L 38.28125 72.90625 
L 38.28125 8.296875 
L 54.390625 8.296875 
L 54.390625 0 
L 12.40625 0 
z
" id="DejaVuSans-49"/>
      </defs>
      <g transform="translate(579.167812 487.797813)scale(0.14 -0.14)">
       <use xlink:href="#DejaVuSans-49"/>
       <use x="63.623047" xlink:href="#DejaVuSans-46"/>
       <use x="95.410156" xlink:href="#DejaVuSans-48"/>
      </g>
     </g>
    </g>
    <g id="text_7">
     <!-- Coeficiente de Pearson promedio -->
     <defs>
      <path d="M 64.40625 67.28125 
L 64.40625 56.890625 
Q 59.421875 61.53125 53.78125 63.8125 
Q 48.140625 66.109375 41.796875 66.109375 
Q 29.296875 66.109375 22.65625 58.46875 
Q 16.015625 50.828125 16.015625 36.375 
Q 16.015625 21.96875 22.65625 14.328125 
Q 29.296875 6.6875 41.796875 6.6875 
Q 48.140625 6.6875 53.78125 8.984375 
Q 59.421875 11.28125 64.40625 15.921875 
L 64.40625 5.609375 
Q 59.234375 2.09375 53.4375 0.328125 
Q 47.65625 -1.421875 41.21875 -1.421875 
Q 24.65625 -1.421875 15.125 8.703125 
Q 5.609375 18.84375 5.609375 36.375 
Q 5.609375 53.953125 15.125 64.078125 
Q 24.65625 74.21875 41.21875 74.21875 
Q 47.75 74.21875 53.53125 72.484375 
Q 59.328125 70.75 64.40625 67.28125 
z
" id="DejaVuSans-67"/>
      <path d="M 30.609375 48.390625 
Q 23.390625 48.390625 19.1875 42.75 
Q 14.984375 37.109375 14.984375 27.296875 
Q 14.984375 17.484375 19.15625 11.84375 
Q 23.34375 6.203125 30.609375 6.203125 
Q 37.796875 6.203125 41.984375 11.859375 
Q 46.1875 17.53125 46.1875 27.296875 
Q 46.1875 37.015625 41.984375 42.703125 
Q 37.796875 48.390625 30.609375 48.390625 
z
M 30.609375 56 
Q 42.328125 56 49.015625 48.375 
Q 55.71875 40.765625 55.71875 27.296875 
Q 55.71875 13.875 49.015625 6.21875 
Q 42.328125 -1.421875 30.609375 -1.421875 
Q 18.84375 -1.421875 12.171875 6.21875 
Q 5.515625 13.875 5.515625 27.296875 
Q 5.515625 40.765625 12.171875 48.375 
Q 18.84375 56 30.609375 56 
z
" id="DejaVuSans-111"/>
      <path d="M 56.203125 29.59375 
L 56.203125 25.203125 
L 14.890625 25.203125 
Q 15.484375 15.921875 20.484375 11.0625 
Q 25.484375 6.203125 34.421875 6.203125 
Q 39.59375 6.203125 44.453125 7.46875 
Q 49.3125 8.734375 54.109375 11.28125 
L 54.109375 2.78125 
Q 49.265625 0.734375 44.1875 -0.34375 
Q 39.109375 -1.421875 33.890625 -1.421875 
Q 20.796875 -1.421875 13.15625 6.1875 
Q 5.515625 13.8125 5.515625 26.8125 
Q 5.515625 40.234375 12.765625 48.109375 
Q 20.015625 56 32.328125 56 
Q 43.359375 56 49.78125 48.890625 
Q 56.203125 41.796875 56.203125 29.59375 
z
M 47.21875 32.234375 
Q 47.125 39.59375 43.09375 43.984375 
Q 39.0625 48.390625 32.421875 48.390625 
Q 24.90625 48.390625 20.390625 44.140625 
Q 15.875 39.890625 15.1875 32.171875 
z
" id="DejaVuSans-101"/>
      <path d="M 37.109375 75.984375 
L 37.109375 68.5 
L 28.515625 68.5 
Q 23.6875 68.5 21.796875 66.546875 
Q 19.921875 64.59375 19.921875 59.515625 
L 19.921875 54.6875 
L 34.71875 54.6875 
L 34.71875 47.703125 
L 19.921875 47.703125 
L 19.921875 0 
L 10.890625 0 
L 10.890625 47.703125 
L 2.296875 47.703125 
L 2.296875 54.6875 
L 10.890625 54.6875 
L 10.890625 58.5 
Q 10.890625 67.625 15.140625 71.796875 
Q 19.390625 75.984375 28.609375 75.984375 
z
" id="DejaVuSans-102"/>
      <path d="M 9.421875 54.6875 
L 18.40625 54.6875 
L 18.40625 0 
L 9.421875 0 
z
M 9.421875 75.984375 
L 18.40625 75.984375 
L 18.40625 64.59375 
L 9.421875 64.59375 
z
" id="DejaVuSans-105"/>
      <path d="M 48.78125 52.59375 
L 48.78125 44.1875 
Q 44.96875 46.296875 41.140625 47.34375 
Q 37.3125 48.390625 33.40625 48.390625 
Q 24.65625 48.390625 19.8125 42.84375 
Q 14.984375 37.3125 14.984375 27.296875 
Q 14.984375 17.28125 19.8125 11.734375 
Q 24.65625 6.203125 33.40625 6.203125 
Q 37.3125 6.203125 41.140625 7.25 
Q 44.96875 8.296875 48.78125 10.40625 
L 48.78125 2.09375 
Q 45.015625 0.34375 40.984375 -0.53125 
Q 36.96875 -1.421875 32.421875 -1.421875 
Q 20.0625 -1.421875 12.78125 6.34375 
Q 5.515625 14.109375 5.515625 27.296875 
Q 5.515625 40.671875 12.859375 48.328125 
Q 20.21875 56 33.015625 56 
Q 37.15625 56 41.109375 55.140625 
Q 45.0625 54.296875 48.78125 52.59375 
z
" id="DejaVuSans-99"/>
      <path d="M 54.890625 33.015625 
L 54.890625 0 
L 45.90625 0 
L 45.90625 32.71875 
Q 45.90625 40.484375 42.875 44.328125 
Q 39.84375 48.1875 33.796875 48.1875 
Q 26.515625 48.1875 22.3125 43.546875 
Q 18.109375 38.921875 18.109375 30.90625 
L 18.109375 0 
L 9.078125 0 
L 9.078125 54.6875 
L 18.109375 54.6875 
L 18.109375 46.1875 
Q 21.34375 51.125 25.703125 53.5625 
Q 30.078125 56 35.796875 56 
Q 45.21875 56 50.046875 50.171875 
Q 54.890625 44.34375 54.890625 33.015625 
z
" id="DejaVuSans-110"/>
      <path d="M 18.3125 70.21875 
L 18.3125 54.6875 
L 36.8125 54.6875 
L 36.8125 47.703125 
L 18.3125 47.703125 
L 18.3125 18.015625 
Q 18.3125 11.328125 20.140625 9.421875 
Q 21.96875 7.515625 27.59375 7.515625 
L 36.8125 7.515625 
L 36.8125 0 
L 27.59375 0 
Q 17.1875 0 13.234375 3.875 
Q 9.28125 7.765625 9.28125 18.015625 
L 9.28125 47.703125 
L 2.6875 47.703125 
L 2.6875 54.6875 
L 9.28125 54.6875 
L 9.28125 70.21875 
z
" id="DejaVuSans-116"/>
      <path id="DejaVuSans-32"/>
      <path d="M 45.40625 46.390625 
L 45.40625 75.984375 
L 54.390625 75.984375 
L 54.390625 0 
L 45.40625 0 
L 45.40625 8.203125 
Q 42.578125 3.328125 38.25 0.953125 
Q 33.9375 -1.421875 27.875 -1.421875 
Q 17.96875 -1.421875 11.734375 6.484375 
Q 5.515625 14.40625 5.515625 27.296875 
Q 5.515625 40.1875 11.734375 48.09375 
Q 17.96875 56 27.875 56 
Q 33.9375 56 38.25 53.625 
Q 42.578125 51.265625 45.40625 46.390625 
z
M 14.796875 27.296875 
Q 14.796875 17.390625 18.875 11.75 
Q 22.953125 6.109375 30.078125 6.109375 
Q 37.203125 6.109375 41.296875 11.75 
Q 45.40625 17.390625 45.40625 27.296875 
Q 45.40625 37.203125 41.296875 42.84375 
Q 37.203125 48.484375 30.078125 48.484375 
Q 22.953125 48.484375 18.875 42.84375 
Q 14.796875 37.203125 14.796875 27.296875 
z
" id="DejaVuSans-100"/>
      <path d="M 19.671875 64.796875 
L 19.671875 37.40625 
L 32.078125 37.40625 
Q 38.96875 37.40625 42.71875 40.96875 
Q 46.484375 44.53125 46.484375 51.125 
Q 46.484375 57.671875 42.71875 61.234375 
Q 38.96875 64.796875 32.078125 64.796875 
z
M 9.8125 72.90625 
L 32.078125 72.90625 
Q 44.34375 72.90625 50.609375 67.359375 
Q 56.890625 61.8125 56.890625 51.125 
Q 56.890625 40.328125 50.609375 34.8125 
Q 44.34375 29.296875 32.078125 29.296875 
L 19.671875 29.296875 
L 19.671875 0 
L 9.8125 0 
z
" id="DejaVuSans-80"/>
      <path d="M 34.28125 27.484375 
Q 23.390625 27.484375 19.1875 25 
Q 14.984375 22.515625 14.984375 16.5 
Q 14.984375 11.71875 18.140625 8.90625 
Q 21.296875 6.109375 26.703125 6.109375 
Q 34.1875 6.109375 38.703125 11.40625 
Q 43.21875 16.703125 43.21875 25.484375 
L 43.21875 27.484375 
z
M 52.203125 31.203125 
L 52.203125 0 
L 43.21875 0 
L 43.21875 8.296875 
Q 40.140625 3.328125 35.546875 0.953125 
Q 30.953125 -1.421875 24.3125 -1.421875 
Q 15.921875 -1.421875 10.953125 3.296875 
Q 6 8.015625 6 15.921875 
Q 6 25.140625 12.171875 29.828125 
Q 18.359375 34.515625 30.609375 34.515625 
L 43.21875 34.515625 
L 43.21875 35.40625 
Q 43.21875 41.609375 39.140625 45 
Q 35.0625 48.390625 27.6875 48.390625 
Q 23 48.390625 18.546875 47.265625 
Q 14.109375 46.140625 10.015625 43.890625 
L 10.015625 52.203125 
Q 14.9375 54.109375 19.578125 55.046875 
Q 24.21875 56 28.609375 56 
Q 40.484375 56 46.34375 49.84375 
Q 52.203125 43.703125 52.203125 31.203125 
z
" id="DejaVuSans-97"/>
      <path d="M 41.109375 46.296875 
Q 39.59375 47.171875 37.8125 47.578125 
Q 36.03125 48 33.890625 48 
Q 26.265625 48 22.1875 43.046875 
Q 18.109375 38.09375 18.109375 28.8125 
L 18.109375 0 
L 9.078125 0 
L 9.078125 54.6875 
L 18.109375 54.6875 
L 18.109375 46.1875 
Q 20.953125 51.171875 25.484375 53.578125 
Q 30.03125 56 36.53125 56 
Q 37.453125 56 38.578125 55.875 
Q 39.703125 55.765625 41.0625 55.515625 
z
" id="DejaVuSans-114"/>
      <path d="M 44.28125 53.078125 
L 44.28125 44.578125 
Q 40.484375 46.53125 36.375 47.5 
Q 32.28125 48.484375 27.875 48.484375 
Q 21.1875 48.484375 17.84375 46.4375 
Q 14.5 44.390625 14.5 40.28125 
Q 14.5 37.15625 16.890625 35.375 
Q 19.28125 33.59375 26.515625 31.984375 
L 29.59375 31.296875 
Q 39.15625 29.25 43.1875 25.515625 
Q 47.21875 21.78125 47.21875 15.09375 
Q 47.21875 7.46875 41.1875 3.015625 
Q 35.15625 -1.421875 24.609375 -1.421875 
Q 20.21875 -1.421875 15.453125 -0.5625 
Q 10.6875 0.296875 5.421875 2 
L 5.421875 11.28125 
Q 10.40625 8.6875 15.234375 7.390625 
Q 20.0625 6.109375 24.8125 6.109375 
Q 31.15625 6.109375 34.5625 8.28125 
Q 37.984375 10.453125 37.984375 14.40625 
Q 37.984375 18.0625 35.515625 20.015625 
Q 33.0625 21.96875 24.703125 23.78125 
L 21.578125 24.515625 
Q 13.234375 26.265625 9.515625 29.90625 
Q 5.8125 33.546875 5.8125 39.890625 
Q 5.8125 47.609375 11.28125 51.796875 
Q 16.75 56 26.8125 56 
Q 31.78125 56 36.171875 55.265625 
Q 40.578125 54.546875 44.28125 53.078125 
z
" id="DejaVuSans-115"/>
      <path d="M 18.109375 8.203125 
L 18.109375 -20.796875 
L 9.078125 -20.796875 
L 9.078125 54.6875 
L 18.109375 54.6875 
L 18.109375 46.390625 
Q 20.953125 51.265625 25.265625 53.625 
Q 29.59375 56 35.59375 56 
Q 45.5625 56 51.78125 48.09375 
Q 58.015625 40.1875 58.015625 27.296875 
Q 58.015625 14.40625 51.78125 6.484375 
Q 45.5625 -1.421875 35.59375 -1.421875 
Q 29.59375 -1.421875 25.265625 0.953125 
Q 20.953125 3.328125 18.109375 8.203125 
z
M 48.6875 27.296875 
Q 48.6875 37.203125 44.609375 42.84375 
Q 40.53125 48.484375 33.40625 48.484375 
Q 26.265625 48.484375 22.1875 42.84375 
Q 18.109375 37.203125 18.109375 27.296875 
Q 18.109375 17.390625 22.1875 11.75 
Q 26.265625 6.109375 33.40625 6.109375 
Q 40.53125 6.109375 44.609375 11.75 
Q 48.6875 17.390625 48.6875 27.296875 
z
" id="DejaVuSans-112"/>
      <path d="M 52 44.1875 
Q 55.375 50.25 60.0625 53.125 
Q 64.75 56 71.09375 56 
Q 79.640625 56 84.28125 50.015625 
Q 88.921875 44.046875 88.921875 33.015625 
L 88.921875 0 
L 79.890625 0 
L 79.890625 32.71875 
Q 79.890625 40.578125 77.09375 44.375 
Q 74.3125 48.1875 68.609375 48.1875 
Q 61.625 48.1875 57.5625 43.546875 
Q 53.515625 38.921875 53.515625 30.90625 
L 53.515625 0 
L 44.484375 0 
L 44.484375 32.71875 
Q 44.484375 40.625 41.703125 44.40625 
Q 38.921875 48.1875 33.109375 48.1875 
Q 26.21875 48.1875 22.15625 43.53125 
Q 18.109375 38.875 18.109375 30.90625 
L 18.109375 0 
L 9.078125 0 
L 9.078125 54.6875 
L 18.109375 54.6875 
L 18.109375 46.1875 
Q 21.1875 51.21875 25.484375 53.609375 
Q 29.78125 56 35.6875 56 
Q 41.65625 56 45.828125 52.96875 
Q 50 49.953125 52 44.1875 
z
" id="DejaVuSans-109"/>
     </defs>
     <g transform="translate(250.741406 505.347188)scale(0.14 -0.14)">
      <use xlink:href="#DejaVuSans-67"/>
      <use x="69.824219" xlink:href="#DejaVuSans-111"/>
      <use x="131.005859" xlink:href="#DejaVuSans-101"/>
      <use x="192.529297" xlink:href="#DejaVuSans-102"/>
      <use x="227.734375" xlink:href="#DejaVuSans-105"/>
      <use x="255.517578" xlink:href="#DejaVuSans-99"/>
      <use x="310.498047" xlink:href="#DejaVuSans-105"/>
      <use x="338.28125" xlink:href="#DejaVuSans-101"/>
      <use x="399.804688" xlink:href="#DejaVuSans-110"/>
      <use x="463.183594" xlink:href="#DejaVuSans-116"/>
      <use x="502.392578" xlink:href="#DejaVuSans-101"/>
      <use x="563.916016" xlink:href="#DejaVuSans-32"/>
      <use x="595.703125" xlink:href="#DejaVuSans-100"/>
      <use x="659.179688" xlink:href="#DejaVuSans-101"/>
      <use x="720.703125" xlink:href="#DejaVuSans-32"/>
      <use x="752.490234" xlink:href="#DejaVuSans-80"/>
      <use x="812.746094" xlink:href="#DejaVuSans-101"/>
      <use x="874.269531" xlink:href="#DejaVuSans-97"/>
      <use x="935.548828" xlink:href="#DejaVuSans-114"/>
      <use x="976.662109" xlink:href="#DejaVuSans-115"/>
      <use x="1028.761719" xlink:href="#DejaVuSans-111"/>
      <use x="1089.943359" xlink:href="#DejaVuSans-110"/>
      <use x="1153.322266" xlink:href="#DejaVuSans-32"/>
      <use x="1185.109375" xlink:href="#DejaVuSans-112"/>
      <use x="1248.585938" xlink:href="#DejaVuSans-114"/>
      <use x="1289.667969" xlink:href="#DejaVuSans-111"/>
      <use x="1350.849609" xlink:href="#DejaVuSans-109"/>
      <use x="1448.261719" xlink:href="#DejaVuSans-101"/>
      <use x="1509.785156" xlink:href="#DejaVuSans-100"/>
      <use x="1573.261719" xlink:href="#DejaVuSans-105"/>
      <use x="1601.044922" xlink:href="#DejaVuSans-111"/>
     </g>
    </g>
   </g>
   <g id="matplotlib.axis_2">
    <g id="ytick_1">
     <g id="line2d_7">
      <defs>
       <path d="M 0 0 
L -3.5 0 
" id="mab5f24e94d" style="stroke:#000000;stroke-width:0.8;"/>
      </defs>
      <g>
       <use style="stroke:#000000;stroke-width:0.8;" x="143.9" xlink:href="#mab5f24e94d" y="445.082927"/>
      </g>
     </g>
     <g id="text_8">
      <!-- Best fit C-R -->
      <defs>
       <path d="M 19.671875 34.8125 
L 19.671875 8.109375 
L 35.5 8.109375 
Q 43.453125 8.109375 47.28125 11.40625 
Q 51.125 14.703125 51.125 21.484375 
Q 51.125 28.328125 47.28125 31.5625 
Q 43.453125 34.8125 35.5 34.8125 
z
M 19.671875 64.796875 
L 19.671875 42.828125 
L 34.28125 42.828125 
Q 41.5 42.828125 45.03125 45.53125 
Q 48.578125 48.25 48.578125 53.8125 
Q 48.578125 59.328125 45.03125 62.0625 
Q 41.5 64.796875 34.28125 64.796875 
z
M 9.8125 72.90625 
L 35.015625 72.90625 
Q 46.296875 72.90625 52.390625 68.21875 
Q 58.5 63.53125 58.5 54.890625 
Q 58.5 48.1875 55.375 44.234375 
Q 52.25 40.28125 46.1875 39.3125 
Q 53.46875 37.75 57.5 32.78125 
Q 61.53125 27.828125 61.53125 20.40625 
Q 61.53125 10.640625 54.890625 5.3125 
Q 48.25 0 35.984375 0 
L 9.8125 0 
z
" id="DejaVuSans-66"/>
       <path d="M 4.890625 31.390625 
L 31.203125 31.390625 
L 31.203125 23.390625 
L 4.890625 23.390625 
z
" id="DejaVuSans-45"/>
       <path d="M 44.390625 34.1875 
Q 47.5625 33.109375 50.5625 29.59375 
Q 53.5625 26.078125 56.59375 19.921875 
L 66.609375 0 
L 56 0 
L 46.6875 18.703125 
Q 43.0625 26.03125 39.671875 28.421875 
Q 36.28125 30.8125 30.421875 30.8125 
L 19.671875 30.8125 
L 19.671875 0 
L 9.8125 0 
L 9.8125 72.90625 
L 32.078125 72.90625 
Q 44.578125 72.90625 50.734375 67.671875 
Q 56.890625 62.453125 56.890625 51.90625 
Q 56.890625 45.015625 53.6875 40.46875 
Q 50.484375 35.9375 44.390625 34.1875 
z
M 19.671875 64.796875 
L 19.671875 38.921875 
L 32.078125 38.921875 
Q 39.203125 38.921875 42.84375 42.21875 
Q 46.484375 45.515625 46.484375 51.90625 
Q 46.484375 58.296875 42.84375 61.546875 
Q 39.203125 64.796875 32.078125 64.796875 
z
" id="DejaVuSans-82"/>
      </defs>
      <g transform="translate(80.642188 448.882146)scale(0.1 -0.1)">
       <use xlink:href="#DejaVuSans-66"/>
       <use x="68.603516" xlink:href="#DejaVuSans-101"/>
       <use x="130.126953" xlink:href="#DejaVuSans-115"/>
       <use x="182.226562" xlink:href="#DejaVuSans-116"/>
       <use x="221.435547" xlink:href="#DejaVuSans-32"/>
       <use x="253.222656" xlink:href="#DejaVuSans-102"/>
       <use x="288.427734" xlink:href="#DejaVuSans-105"/>
       <use x="316.210938" xlink:href="#DejaVuSans-116"/>
       <use x="355.419922" xlink:href="#DejaVuSans-32"/>
       <use x="387.207031" xlink:href="#DejaVuSans-67"/>
       <use x="457.03125" xlink:href="#DejaVuSans-45"/>
       <use x="493.115234" xlink:href="#DejaVuSans-82"/>
      </g>
     </g>
    </g>
    <g id="ytick_2">
     <g id="line2d_8">
      <g>
       <use style="stroke:#000000;stroke-width:0.8;" x="143.9" xlink:href="#mab5f24e94d" y="432.790244"/>
      </g>
     </g>
     <g id="text_9">
      <!-- Best fit C-V -->
      <defs>
       <path d="M 28.609375 0 
L 0.78125 72.90625 
L 11.078125 72.90625 
L 34.1875 11.53125 
L 57.328125 72.90625 
L 67.578125 72.90625 
L 39.796875 0 
z
" id="DejaVuSans-86"/>
      </defs>
      <g transform="translate(80.757812 436.589463)scale(0.1 -0.1)">
       <use xlink:href="#DejaVuSans-66"/>
       <use x="68.603516" xlink:href="#DejaVuSans-101"/>
       <use x="130.126953" xlink:href="#DejaVuSans-115"/>
       <use x="182.226562" xlink:href="#DejaVuSans-116"/>
       <use x="221.435547" xlink:href="#DejaVuSans-32"/>
       <use x="253.222656" xlink:href="#DejaVuSans-102"/>
       <use x="288.427734" xlink:href="#DejaVuSans-105"/>
       <use x="316.210938" xlink:href="#DejaVuSans-116"/>
       <use x="355.419922" xlink:href="#DejaVuSans-32"/>
       <use x="387.207031" xlink:href="#DejaVuSans-67"/>
       <use x="457.03125" xlink:href="#DejaVuSans-45"/>
       <use x="493.037109" xlink:href="#DejaVuSans-86"/>
      </g>
     </g>
    </g>
    <g id="ytick_3">
     <g id="line2d_9">
      <g>
       <use style="stroke:#000000;stroke-width:0.8;" x="143.9" xlink:href="#mab5f24e94d" y="420.497561"/>
      </g>
     </g>
     <g id="text_10">
      <!-- Curvatura media -->
      <defs>
       <path d="M 8.5 21.578125 
L 8.5 54.6875 
L 17.484375 54.6875 
L 17.484375 21.921875 
Q 17.484375 14.15625 20.5 10.265625 
Q 23.53125 6.390625 29.59375 6.390625 
Q 36.859375 6.390625 41.078125 11.03125 
Q 45.3125 15.671875 45.3125 23.6875 
L 45.3125 54.6875 
L 54.296875 54.6875 
L 54.296875 0 
L 45.3125 0 
L 45.3125 8.40625 
Q 42.046875 3.421875 37.71875 1 
Q 33.40625 -1.421875 27.6875 -1.421875 
Q 18.265625 -1.421875 13.375 4.4375 
Q 8.5 10.296875 8.5 21.578125 
z
M 31.109375 56 
z
" id="DejaVuSans-117"/>
       <path d="M 2.984375 54.6875 
L 12.5 54.6875 
L 29.59375 8.796875 
L 46.6875 54.6875 
L 56.203125 54.6875 
L 35.6875 0 
L 23.484375 0 
z
" id="DejaVuSans-118"/>
      </defs>
      <g transform="translate(52.598438 424.29678)scale(0.1 -0.1)">
       <use xlink:href="#DejaVuSans-67"/>
       <use x="69.824219" xlink:href="#DejaVuSans-117"/>
       <use x="133.203125" xlink:href="#DejaVuSans-114"/>
       <use x="174.316406" xlink:href="#DejaVuSans-118"/>
       <use x="233.496094" xlink:href="#DejaVuSans-97"/>
       <use x="294.775391" xlink:href="#DejaVuSans-116"/>
       <use x="333.984375" xlink:href="#DejaVuSans-117"/>
       <use x="397.363281" xlink:href="#DejaVuSans-114"/>
       <use x="438.476562" xlink:href="#DejaVuSans-97"/>
       <use x="499.755859" xlink:href="#DejaVuSans-32"/>
       <use x="531.542969" xlink:href="#DejaVuSans-109"/>
       <use x="628.955078" xlink:href="#DejaVuSans-101"/>
       <use x="690.478516" xlink:href="#DejaVuSans-100"/>
       <use x="753.955078" xlink:href="#DejaVuSans-105"/>
       <use x="781.738281" xlink:href="#DejaVuSans-97"/>
      </g>
     </g>
    </g>
    <g id="ytick_4">
     <g id="line2d_10">
      <g>
       <use style="stroke:#000000;stroke-width:0.8;" x="143.9" xlink:href="#mab5f24e94d" y="395.912195"/>
      </g>
     </g>
     <g id="text_11">
      <!-- Normal MSMS -->
      <defs>
       <path d="M 9.8125 72.90625 
L 23.09375 72.90625 
L 55.421875 11.921875 
L 55.421875 72.90625 
L 64.984375 72.90625 
L 64.984375 0 
L 51.703125 0 
L 19.390625 60.984375 
L 19.390625 0 
L 9.8125 0 
z
" id="DejaVuSans-78"/>
       <path d="M 9.421875 75.984375 
L 18.40625 75.984375 
L 18.40625 0 
L 9.421875 0 
z
" id="DejaVuSans-108"/>
       <path d="M 9.8125 72.90625 
L 24.515625 72.90625 
L 43.109375 23.296875 
L 61.8125 72.90625 
L 76.515625 72.90625 
L 76.515625 0 
L 66.890625 0 
L 66.890625 64.015625 
L 48.09375 14.015625 
L 38.1875 14.015625 
L 19.390625 64.015625 
L 19.390625 0 
L 9.8125 0 
z
" id="DejaVuSans-77"/>
       <path d="M 53.515625 70.515625 
L 53.515625 60.890625 
Q 47.90625 63.578125 42.921875 64.890625 
Q 37.9375 66.21875 33.296875 66.21875 
Q 25.25 66.21875 20.875 63.09375 
Q 16.5 59.96875 16.5 54.203125 
Q 16.5 49.359375 19.40625 46.890625 
Q 22.3125 44.4375 30.421875 42.921875 
L 36.375 41.703125 
Q 47.40625 39.59375 52.65625 34.296875 
Q 57.90625 29 57.90625 20.125 
Q 57.90625 9.515625 50.796875 4.046875 
Q 43.703125 -1.421875 29.984375 -1.421875 
Q 24.8125 -1.421875 18.96875 -0.25 
Q 13.140625 0.921875 6.890625 3.21875 
L 6.890625 13.375 
Q 12.890625 10.015625 18.65625 8.296875 
Q 24.421875 6.59375 29.984375 6.59375 
Q 38.421875 6.59375 43.015625 9.90625 
Q 47.609375 13.234375 47.609375 19.390625 
Q 47.609375 24.75 44.3125 27.78125 
Q 41.015625 30.8125 33.5 32.328125 
L 27.484375 33.5 
Q 16.453125 35.6875 11.515625 40.375 
Q 6.59375 45.0625 6.59375 53.421875 
Q 6.59375 63.09375 13.40625 68.65625 
Q 20.21875 74.21875 32.171875 74.21875 
Q 37.3125 74.21875 42.625 73.28125 
Q 47.953125 72.359375 53.515625 70.515625 
z
" id="DejaVuSans-83"/>
      </defs>
      <g transform="translate(67.4125 399.711414)scale(0.1 -0.1)">
       <use xlink:href="#DejaVuSans-78"/>
       <use x="74.804688" xlink:href="#DejaVuSans-111"/>
       <use x="135.986328" xlink:href="#DejaVuSans-114"/>
       <use x="177.083984" xlink:href="#DejaVuSans-109"/>
       <use x="274.496094" xlink:href="#DejaVuSans-97"/>
       <use x="335.775391" xlink:href="#DejaVuSans-108"/>
       <use x="363.558594" xlink:href="#DejaVuSans-32"/>
       <use x="395.345703" xlink:href="#DejaVuSans-77"/>
       <use x="481.625" xlink:href="#DejaVuSans-83"/>
       <use x="545.101562" xlink:href="#DejaVuSans-77"/>
       <use x="631.380859" xlink:href="#DejaVuSans-83"/>
      </g>
     </g>
    </g>
    <g id="ytick_5">
     <g id="line2d_11">
      <g>
       <use style="stroke:#000000;stroke-width:0.8;" x="143.9" xlink:href="#mab5f24e94d" y="383.619512"/>
      </g>
     </g>
     <g id="text_12">
      <!-- Normal AWPN -->
      <defs>
       <path d="M 34.1875 63.1875 
L 20.796875 26.90625 
L 47.609375 26.90625 
z
M 28.609375 72.90625 
L 39.796875 72.90625 
L 67.578125 0 
L 57.328125 0 
L 50.6875 18.703125 
L 17.828125 18.703125 
L 11.1875 0 
L 0.78125 0 
z
" id="DejaVuSans-65"/>
       <path d="M 3.328125 72.90625 
L 13.28125 72.90625 
L 28.609375 11.28125 
L 43.890625 72.90625 
L 54.984375 72.90625 
L 70.3125 11.28125 
L 85.59375 72.90625 
L 95.609375 72.90625 
L 77.296875 0 
L 64.890625 0 
L 49.515625 63.28125 
L 33.984375 0 
L 21.578125 0 
z
" id="DejaVuSans-87"/>
      </defs>
      <g transform="translate(67.134375 387.418731)scale(0.1 -0.1)">
       <use xlink:href="#DejaVuSans-78"/>
       <use x="74.804688" xlink:href="#DejaVuSans-111"/>
       <use x="135.986328" xlink:href="#DejaVuSans-114"/>
       <use x="177.083984" xlink:href="#DejaVuSans-109"/>
       <use x="274.496094" xlink:href="#DejaVuSans-97"/>
       <use x="335.775391" xlink:href="#DejaVuSans-108"/>
       <use x="363.558594" xlink:href="#DejaVuSans-32"/>
       <use x="395.345703" xlink:href="#DejaVuSans-65"/>
       <use x="463.675781" xlink:href="#DejaVuSans-87"/>
       <use x="562.552734" xlink:href="#DejaVuSans-80"/>
       <use x="622.855469" xlink:href="#DejaVuSans-78"/>
      </g>
     </g>
    </g>
    <g id="ytick_6">
     <g id="line2d_12">
      <g>
       <use style="stroke:#000000;stroke-width:0.8;" x="143.9" xlink:href="#mab5f24e94d" y="371.326829"/>
      </g>
     </g>
     <g id="text_13">
      <!-- Normal Panel -->
      <g transform="translate(69.945312 375.126048)scale(0.1 -0.1)">
       <use xlink:href="#DejaVuSans-78"/>
       <use x="74.804688" xlink:href="#DejaVuSans-111"/>
       <use x="135.986328" xlink:href="#DejaVuSans-114"/>
       <use x="177.083984" xlink:href="#DejaVuSans-109"/>
       <use x="274.496094" xlink:href="#DejaVuSans-97"/>
       <use x="335.775391" xlink:href="#DejaVuSans-108"/>
       <use x="363.558594" xlink:href="#DejaVuSans-32"/>
       <use x="395.345703" xlink:href="#DejaVuSans-80"/>
       <use x="455.585938" xlink:href="#DejaVuSans-97"/>
       <use x="516.865234" xlink:href="#DejaVuSans-110"/>
       <use x="580.244141" xlink:href="#DejaVuSans-101"/>
       <use x="641.767578" xlink:href="#DejaVuSans-108"/>
      </g>
     </g>
    </g>
    <g id="ytick_7">
     <g id="line2d_13">
      <g>
       <use style="stroke:#000000;stroke-width:0.8;" x="143.9" xlink:href="#mab5f24e94d" y="346.741463"/>
      </g>
     </g>
     <g id="text_14">
      <!-- Área tercio -->
      <defs>
       <path d="M 34.1875 63.1875 
L 20.796875 26.90625 
L 47.609375 26.90625 
z
M 28.609375 72.90625 
L 39.796875 72.90625 
L 67.578125 0 
L 57.328125 0 
L 50.6875 18.703125 
L 17.828125 18.703125 
L 11.1875 0 
L 0.78125 0 
z
M 36.859375 92.734375 
L 45.90625 92.734375 
L 34.765625 79.84375 
L 27.296875 79.84375 
z
" id="DejaVuSans-193"/>
      </defs>
      <g transform="translate(81.915625 350.540682)scale(0.1 -0.1)">
       <use xlink:href="#DejaVuSans-193"/>
       <use x="68.408203" xlink:href="#DejaVuSans-114"/>
       <use x="109.490234" xlink:href="#DejaVuSans-101"/>
       <use x="171.013672" xlink:href="#DejaVuSans-97"/>
       <use x="232.292969" xlink:href="#DejaVuSans-32"/>
       <use x="264.080078" xlink:href="#DejaVuSans-116"/>
       <use x="303.289062" xlink:href="#DejaVuSans-101"/>
       <use x="364.8125" xlink:href="#DejaVuSans-114"/>
       <use x="405.894531" xlink:href="#DejaVuSans-99"/>
       <use x="460.875" xlink:href="#DejaVuSans-105"/>
       <use x="488.658203" xlink:href="#DejaVuSans-111"/>
      </g>
     </g>
    </g>
    <g id="ytick_8">
     <g id="line2d_14">
      <g>
       <use style="stroke:#000000;stroke-width:0.8;" x="143.9" xlink:href="#mab5f24e94d" y="334.44878"/>
      </g>
     </g>
     <g id="text_15">
      <!-- Área mix -->
      <defs>
       <path d="M 54.890625 54.6875 
L 35.109375 28.078125 
L 55.90625 0 
L 45.3125 0 
L 29.390625 21.484375 
L 13.484375 0 
L 2.875 0 
L 24.125 28.609375 
L 4.6875 54.6875 
L 15.28125 54.6875 
L 29.78125 35.203125 
L 44.28125 54.6875 
z
" id="DejaVuSans-120"/>
      </defs>
      <g transform="translate(92.054688 338.247999)scale(0.1 -0.1)">
       <use xlink:href="#DejaVuSans-193"/>
       <use x="68.408203" xlink:href="#DejaVuSans-114"/>
       <use x="109.490234" xlink:href="#DejaVuSans-101"/>
       <use x="171.013672" xlink:href="#DejaVuSans-97"/>
       <use x="232.292969" xlink:href="#DejaVuSans-32"/>
       <use x="264.080078" xlink:href="#DejaVuSans-109"/>
       <use x="361.492188" xlink:href="#DejaVuSans-105"/>
       <use x="389.275391" xlink:href="#DejaVuSans-120"/>
      </g>
     </g>
    </g>
    <g id="ytick_9">
     <g id="line2d_15">
      <g>
       <use style="stroke:#000000;stroke-width:0.8;" x="143.9" xlink:href="#mab5f24e94d" y="322.156098"/>
      </g>
     </g>
     <g id="text_16">
      <!-- Área del panel -->
      <g transform="translate(64.289062 326.792816)scale(0.1 -0.1)">
       <use xlink:href="#DejaVuSans-193"/>
       <use x="68.408203" xlink:href="#DejaVuSans-114"/>
       <use x="109.490234" xlink:href="#DejaVuSans-101"/>
       <use x="171.013672" xlink:href="#DejaVuSans-97"/>
       <use x="232.292969" xlink:href="#DejaVuSans-32"/>
       <use x="264.080078" xlink:href="#DejaVuSans-100"/>
       <use x="327.556641" xlink:href="#DejaVuSans-101"/>
       <use x="389.080078" xlink:href="#DejaVuSans-108"/>
       <use x="416.863281" xlink:href="#DejaVuSans-32"/>
       <use x="448.650391" xlink:href="#DejaVuSans-112"/>
       <use x="512.126953" xlink:href="#DejaVuSans-97"/>
       <use x="573.40625" xlink:href="#DejaVuSans-110"/>
       <use x="636.785156" xlink:href="#DejaVuSans-101"/>
       <use x="698.308594" xlink:href="#DejaVuSans-108"/>
      </g>
     </g>
    </g>
    <g id="ytick_10">
     <g id="line2d_16">
      <g>
       <use style="stroke:#000000;stroke-width:0.8;" x="143.9" xlink:href="#mab5f24e94d" y="297.570732"/>
      </g>
     </g>
     <g id="text_17">
      <!--  $\delta$ SPC -->
      <defs>
       <path d="M 54.25 63.328125 
Q 49.953125 66.75 38.28125 66.75 
Q 25.921875 66.75 24.8125 61.03125 
Q 23.921875 56.546875 36.375 54.203125 
Q 46.140625 52.390625 50.828125 46.921875 
Q 56.5 40.328125 53.859375 26.8125 
Q 51.3125 13.875 43.171875 6.25 
Q 34.96875 -1.421875 23.25 -1.421875 
Q 11.578125 -1.421875 6.34375 6.25 
Q 1.125 13.875 3.765625 27.296875 
Q 5.671875 37.25 13.921875 45.3125 
Q 17.140625 48.4375 21.140625 50.203125 
Q 14.265625 54.046875 15.625 60.9375 
Q 18.21875 74.21875 39.75 74.21875 
Q 50.53125 74.21875 55.71875 70.796875 
z
M 27.390625 47.75 
Q 23.828125 46.34375 20.40625 42.78125 
Q 15.140625 37.25 13.234375 27.296875 
Q 11.28125 17.390625 14.359375 11.8125 
Q 17.484375 6.203125 24.75 6.203125 
Q 31.9375 6.203125 37.203125 11.859375 
Q 42.53125 17.53125 44.34375 26.8125 
Q 46.1875 36.53125 42.671875 41.21875 
Q 38.921875 46.234375 32.859375 46.78125 
Q 29.78125 47.078125 27.390625 47.75 
z
" id="DejaVuSans-Oblique-948"/>
      </defs>
      <g transform="translate(105 301.36995)scale(0.1 -0.1)">
       <use transform="translate(0 0.78125)" xlink:href="#DejaVuSans-32"/>
       <use transform="translate(31.787109 0.78125)" xlink:href="#DejaVuSans-Oblique-948"/>
       <use transform="translate(92.96875 0.78125)" xlink:href="#DejaVuSans-32"/>
       <use transform="translate(124.755859 0.78125)" xlink:href="#DejaVuSans-83"/>
       <use transform="translate(188.232422 0.78125)" xlink:href="#DejaVuSans-80"/>
       <use transform="translate(248.535156 0.78125)" xlink:href="#DejaVuSans-67"/>
      </g>
     </g>
    </g>
    <g id="ytick_11">
     <g id="line2d_17">
      <g>
       <use style="stroke:#000000;stroke-width:0.8;" x="143.9" xlink:href="#mab5f24e94d" y="285.278049"/>
      </g>
     </g>
     <g id="text_18">
      <!--  $\delta$ SPC/E -->
      <defs>
       <path d="M 25.390625 72.90625 
L 33.6875 72.90625 
L 8.296875 -9.28125 
L 0 -9.28125 
z
" id="DejaVuSans-47"/>
       <path d="M 9.8125 72.90625 
L 55.90625 72.90625 
L 55.90625 64.59375 
L 19.671875 64.59375 
L 19.671875 43.015625 
L 54.390625 43.015625 
L 54.390625 34.71875 
L 19.671875 34.71875 
L 19.671875 8.296875 
L 56.78125 8.296875 
L 56.78125 0 
L 9.8125 0 
z
" id="DejaVuSans-69"/>
      </defs>
      <g transform="translate(95.3 289.077268)scale(0.1 -0.1)">
       <use transform="translate(0 0.78125)" xlink:href="#DejaVuSans-32"/>
       <use transform="translate(31.787109 0.78125)" xlink:href="#DejaVuSans-Oblique-948"/>
       <use transform="translate(92.96875 0.78125)" xlink:href="#DejaVuSans-32"/>
       <use transform="translate(124.755859 0.78125)" xlink:href="#DejaVuSans-83"/>
       <use transform="translate(188.232422 0.78125)" xlink:href="#DejaVuSans-80"/>
       <use transform="translate(248.535156 0.78125)" xlink:href="#DejaVuSans-67"/>
       <use transform="translate(318.359375 0.78125)" xlink:href="#DejaVuSans-47"/>
       <use transform="translate(352.050781 0.78125)" xlink:href="#DejaVuSans-69"/>
      </g>
     </g>
    </g>
    <g id="ytick_12">
     <g id="line2d_18">
      <g>
       <use style="stroke:#000000;stroke-width:0.8;" x="143.9" xlink:href="#mab5f24e94d" y="272.985366"/>
      </g>
     </g>
     <g id="text_19">
      <!--  $\delta$ cte $\Delta G_{np}$  -->
      <defs>
       <path d="M 34.1875 63.1875 
L 14.15625 8.203125 
L 54.25 8.203125 
z
M 0.78125 0 
L 28.609375 72.90625 
L 39.796875 72.90625 
L 67.578125 0 
z
" id="DejaVuSans-916"/>
       <path d="M 54.59375 10.890625 
L 58.40625 29.984375 
L 42.1875 29.984375 
L 43.703125 38.09375 
L 69.578125 38.09375 
L 63.28125 6 
Q 56.78125 2.4375 49.109375 0.5 
Q 41.453125 -1.421875 33.6875 -1.421875 
Q 19.96875 -1.421875 12.234375 6.1875 
Q 4.5 13.8125 4.5 27.390625 
Q 4.5 38.671875 9.203125 48.84375 
Q 13.921875 59.03125 22.21875 65.828125 
Q 27.4375 70.0625 33.640625 72.140625 
Q 39.84375 74.21875 47.40625 74.21875 
Q 54.25 74.21875 60.515625 72.484375 
Q 66.796875 70.75 72.515625 67.28125 
L 70.515625 56.78125 
Q 66.109375 61.375 60.203125 63.796875 
Q 54.296875 66.21875 47.609375 66.21875 
Q 39.84375 66.21875 33.9375 63.25 
Q 28.03125 60.296875 23.390625 54.109375 
Q 19.4375 48.828125 17.15625 41.671875 
Q 14.890625 34.515625 14.890625 27.09375 
Q 14.890625 16.890625 20.109375 11.734375 
Q 25.34375 6.59375 35.6875 6.59375 
Q 40.875 6.59375 45.703125 7.6875 
Q 50.53125 8.796875 54.59375 10.890625 
z
" id="DejaVuSans-Oblique-71"/>
       <path d="M 55.71875 33.015625 
L 49.3125 0 
L 40.28125 0 
L 46.6875 32.671875 
Q 47.125 34.96875 47.359375 36.71875 
Q 47.609375 38.484375 47.609375 39.5 
Q 47.609375 43.609375 45.015625 45.890625 
Q 42.4375 48.1875 37.796875 48.1875 
Q 30.5625 48.1875 25.34375 43.375 
Q 20.125 38.578125 18.5 30.328125 
L 12.5 0 
L 3.515625 0 
L 14.109375 54.6875 
L 23.09375 54.6875 
L 21.296875 46.09375 
Q 25.046875 50.828125 30.3125 53.40625 
Q 35.59375 56 41.40625 56 
Q 48.640625 56 52.609375 52.09375 
Q 56.59375 48.1875 56.59375 41.109375 
Q 56.59375 39.359375 56.375 37.359375 
Q 56.15625 35.359375 55.71875 33.015625 
z
" id="DejaVuSans-Oblique-110"/>
       <path d="M 49.609375 33.6875 
Q 49.609375 40.875 46.484375 44.671875 
Q 43.359375 48.484375 37.5 48.484375 
Q 33.5 48.484375 29.859375 46.4375 
Q 26.21875 44.390625 23.390625 40.484375 
Q 20.609375 36.625 18.9375 31.15625 
Q 17.28125 25.6875 17.28125 20.3125 
Q 17.28125 13.484375 20.40625 9.796875 
Q 23.53125 6.109375 29.296875 6.109375 
Q 33.546875 6.109375 37.1875 8.109375 
Q 40.828125 10.109375 43.40625 13.921875 
Q 46.1875 17.921875 47.890625 23.34375 
Q 49.609375 28.765625 49.609375 33.6875 
z
M 21.78125 46.390625 
Q 25.390625 51.125 30.296875 53.5625 
Q 35.203125 56 41.21875 56 
Q 49.609375 56 54.25 50.5 
Q 58.890625 45.015625 58.890625 35.109375 
Q 58.890625 27 56 19.65625 
Q 53.125 12.3125 47.703125 6.5 
Q 44.09375 2.640625 39.546875 0.609375 
Q 35.015625 -1.421875 29.984375 -1.421875 
Q 24.171875 -1.421875 20.21875 1 
Q 16.265625 3.421875 14.3125 8.203125 
L 8.6875 -20.796875 
L -0.296875 -20.796875 
L 14.40625 54.6875 
L 23.390625 54.6875 
z
" id="DejaVuSans-Oblique-112"/>
      </defs>
      <g transform="translate(78.7 276.735366)scale(0.1 -0.1)">
       <use transform="translate(0 0.78125)" xlink:href="#DejaVuSans-32"/>
       <use transform="translate(31.787109 0.78125)" xlink:href="#DejaVuSans-Oblique-948"/>
       <use transform="translate(92.96875 0.78125)" xlink:href="#DejaVuSans-32"/>
       <use transform="translate(124.755859 0.78125)" xlink:href="#DejaVuSans-99"/>
       <use transform="translate(179.736328 0.78125)" xlink:href="#DejaVuSans-116"/>
       <use transform="translate(218.945312 0.78125)" xlink:href="#DejaVuSans-101"/>
       <use transform="translate(280.46875 0.78125)" xlink:href="#DejaVuSans-32"/>
       <use transform="translate(312.255859 0.78125)" xlink:href="#DejaVuSans-916"/>
       <use transform="translate(380.664062 0.78125)" xlink:href="#DejaVuSans-Oblique-71"/>
       <use transform="translate(458.154297 -15.625)scale(0.7)" xlink:href="#DejaVuSans-Oblique-110"/>
       <use transform="translate(502.519531 -15.625)scale(0.7)" xlink:href="#DejaVuSans-Oblique-112"/>
       <use transform="translate(549.6875 0.78125)" xlink:href="#DejaVuSans-32"/>
      </g>
     </g>
    </g>
    <g id="ytick_13">
     <g id="line2d_19">
      <g>
       <use style="stroke:#000000;stroke-width:0.8;" x="143.9" xlink:href="#mab5f24e94d" y="260.692683"/>
      </g>
     </g>
     <g id="text_20">
      <!--  $\delta$ Ponderado $\Delta G_{np}$  -->
      <g transform="translate(40.6 264.492683)scale(0.1 -0.1)">
       <use transform="translate(0 0.015625)" xlink:href="#DejaVuSans-32"/>
       <use transform="translate(31.787109 0.015625)" xlink:href="#DejaVuSans-Oblique-948"/>
       <use transform="translate(92.96875 0.015625)" xlink:href="#DejaVuSans-32"/>
       <use transform="translate(124.755859 0.015625)" xlink:href="#DejaVuSans-80"/>
       <use transform="translate(185.058594 0.015625)" xlink:href="#DejaVuSans-111"/>
       <use transform="translate(246.240234 0.015625)" xlink:href="#DejaVuSans-110"/>
       <use transform="translate(309.619141 0.015625)" xlink:href="#DejaVuSans-100"/>
       <use transform="translate(373.095703 0.015625)" xlink:href="#DejaVuSans-101"/>
       <use transform="translate(434.619141 0.015625)" xlink:href="#DejaVuSans-114"/>
       <use transform="translate(475.732422 0.015625)" xlink:href="#DejaVuSans-97"/>
       <use transform="translate(537.011719 0.015625)" xlink:href="#DejaVuSans-100"/>
       <use transform="translate(600.488281 0.015625)" xlink:href="#DejaVuSans-111"/>
       <use transform="translate(661.669922 0.015625)" xlink:href="#DejaVuSans-32"/>
       <use transform="translate(693.457031 0.015625)" xlink:href="#DejaVuSans-916"/>
       <use transform="translate(761.865234 0.015625)" xlink:href="#DejaVuSans-Oblique-71"/>
       <use transform="translate(839.355469 -16.390625)scale(0.7)" xlink:href="#DejaVuSans-Oblique-110"/>
       <use transform="translate(883.720703 -16.390625)scale(0.7)" xlink:href="#DejaVuSans-Oblique-112"/>
       <use transform="translate(930.888672 0.015625)" xlink:href="#DejaVuSans-32"/>
      </g>
     </g>
    </g>
    <g id="ytick_14">
     <g id="line2d_20">
      <g>
       <use style="stroke:#000000;stroke-width:0.8;" x="143.9" xlink:href="#mab5f24e94d" y="248.4"/>
      </g>
     </g>
     <g id="text_21">
      <!--  $\delta$ Promedio $\Delta G_{np}$  -->
      <g transform="translate(46.9 252.2)scale(0.1 -0.1)">
       <use transform="translate(0 0.015625)" xlink:href="#DejaVuSans-32"/>
       <use transform="translate(31.787109 0.015625)" xlink:href="#DejaVuSans-Oblique-948"/>
       <use transform="translate(92.96875 0.015625)" xlink:href="#DejaVuSans-32"/>
       <use transform="translate(124.755859 0.015625)" xlink:href="#DejaVuSans-80"/>
       <use transform="translate(185.058594 0.015625)" xlink:href="#DejaVuSans-114"/>
       <use transform="translate(226.171875 0.015625)" xlink:href="#DejaVuSans-111"/>
       <use transform="translate(287.353516 0.015625)" xlink:href="#DejaVuSans-109"/>
       <use transform="translate(384.765625 0.015625)" xlink:href="#DejaVuSans-101"/>
       <use transform="translate(446.289062 0.015625)" xlink:href="#DejaVuSans-100"/>
       <use transform="translate(509.765625 0.015625)" xlink:href="#DejaVuSans-105"/>
       <use transform="translate(537.548828 0.015625)" xlink:href="#DejaVuSans-111"/>
       <use transform="translate(598.730469 0.015625)" xlink:href="#DejaVuSans-32"/>
       <use transform="translate(630.517578 0.015625)" xlink:href="#DejaVuSans-916"/>
       <use transform="translate(698.925781 0.015625)" xlink:href="#DejaVuSans-Oblique-71"/>
       <use transform="translate(776.416016 -16.390625)scale(0.7)" xlink:href="#DejaVuSans-Oblique-110"/>
       <use transform="translate(820.78125 -16.390625)scale(0.7)" xlink:href="#DejaVuSans-Oblique-112"/>
       <use transform="translate(867.949219 0.015625)" xlink:href="#DejaVuSans-32"/>
      </g>
     </g>
    </g>
    <g id="ytick_15">
     <g id="line2d_21">
      <g>
       <use style="stroke:#000000;stroke-width:0.8;" x="143.9" xlink:href="#mab5f24e94d" y="236.107317"/>
      </g>
     </g>
     <g id="text_22">
      <!--  $\delta$ Malla ponderado $\Delta G_{np}$  -->
      <g transform="translate(10.6 239.907317)scale(0.1 -0.1)">
       <use transform="translate(0 0.015625)" xlink:href="#DejaVuSans-32"/>
       <use transform="translate(31.787109 0.015625)" xlink:href="#DejaVuSans-Oblique-948"/>
       <use transform="translate(92.96875 0.015625)" xlink:href="#DejaVuSans-32"/>
       <use transform="translate(124.755859 0.015625)" xlink:href="#DejaVuSans-77"/>
       <use transform="translate(211.035156 0.015625)" xlink:href="#DejaVuSans-97"/>
       <use transform="translate(272.314453 0.015625)" xlink:href="#DejaVuSans-108"/>
       <use transform="translate(300.097656 0.015625)" xlink:href="#DejaVuSans-108"/>
       <use transform="translate(327.880859 0.015625)" xlink:href="#DejaVuSans-97"/>
       <use transform="translate(389.160156 0.015625)" xlink:href="#DejaVuSans-32"/>
       <use transform="translate(420.947266 0.015625)" xlink:href="#DejaVuSans-112"/>
       <use transform="translate(484.423828 0.015625)" xlink:href="#DejaVuSans-111"/>
       <use transform="translate(545.605469 0.015625)" xlink:href="#DejaVuSans-110"/>
       <use transform="translate(608.984375 0.015625)" xlink:href="#DejaVuSans-100"/>
       <use transform="translate(672.460938 0.015625)" xlink:href="#DejaVuSans-101"/>
       <use transform="translate(733.984375 0.015625)" xlink:href="#DejaVuSans-114"/>
       <use transform="translate(775.097656 0.015625)" xlink:href="#DejaVuSans-97"/>
       <use transform="translate(836.376953 0.015625)" xlink:href="#DejaVuSans-100"/>
       <use transform="translate(899.853516 0.015625)" xlink:href="#DejaVuSans-111"/>
       <use transform="translate(961.035156 0.015625)" xlink:href="#DejaVuSans-32"/>
       <use transform="translate(992.822266 0.015625)" xlink:href="#DejaVuSans-916"/>
       <use transform="translate(1061.230469 0.015625)" xlink:href="#DejaVuSans-Oblique-71"/>
       <use transform="translate(1138.720703 -16.390625)scale(0.7)" xlink:href="#DejaVuSans-Oblique-110"/>
       <use transform="translate(1183.085938 -16.390625)scale(0.7)" xlink:href="#DejaVuSans-Oblique-112"/>
       <use transform="translate(1230.253906 0.015625)" xlink:href="#DejaVuSans-32"/>
      </g>
     </g>
    </g>
    <g id="ytick_16">
     <g id="line2d_22">
      <g>
       <use style="stroke:#000000;stroke-width:0.8;" x="143.9" xlink:href="#mab5f24e94d" y="223.814634"/>
      </g>
     </g>
     <g id="text_23">
      <!--  $\delta$ Malla promedio $\Delta G_{np}$  -->
      <g transform="translate(16.9 227.614634)scale(0.1 -0.1)">
       <use transform="translate(0 0.015625)" xlink:href="#DejaVuSans-32"/>
       <use transform="translate(31.787109 0.015625)" xlink:href="#DejaVuSans-Oblique-948"/>
       <use transform="translate(92.96875 0.015625)" xlink:href="#DejaVuSans-32"/>
       <use transform="translate(124.755859 0.015625)" xlink:href="#DejaVuSans-77"/>
       <use transform="translate(211.035156 0.015625)" xlink:href="#DejaVuSans-97"/>
       <use transform="translate(272.314453 0.015625)" xlink:href="#DejaVuSans-108"/>
       <use transform="translate(300.097656 0.015625)" xlink:href="#DejaVuSans-108"/>
       <use transform="translate(327.880859 0.015625)" xlink:href="#DejaVuSans-97"/>
       <use transform="translate(389.160156 0.015625)" xlink:href="#DejaVuSans-32"/>
       <use transform="translate(420.947266 0.015625)" xlink:href="#DejaVuSans-112"/>
       <use transform="translate(484.423828 0.015625)" xlink:href="#DejaVuSans-114"/>
       <use transform="translate(525.537109 0.015625)" xlink:href="#DejaVuSans-111"/>
       <use transform="translate(586.71875 0.015625)" xlink:href="#DejaVuSans-109"/>
       <use transform="translate(684.130859 0.015625)" xlink:href="#DejaVuSans-101"/>
       <use transform="translate(745.654297 0.015625)" xlink:href="#DejaVuSans-100"/>
       <use transform="translate(809.130859 0.015625)" xlink:href="#DejaVuSans-105"/>
       <use transform="translate(836.914062 0.015625)" xlink:href="#DejaVuSans-111"/>
       <use transform="translate(898.095703 0.015625)" xlink:href="#DejaVuSans-32"/>
       <use transform="translate(929.882812 0.015625)" xlink:href="#DejaVuSans-916"/>
       <use transform="translate(998.291016 0.015625)" xlink:href="#DejaVuSans-Oblique-71"/>
       <use transform="translate(1075.78125 -16.390625)scale(0.7)" xlink:href="#DejaVuSans-Oblique-110"/>
       <use transform="translate(1120.146484 -16.390625)scale(0.7)" xlink:href="#DejaVuSans-Oblique-112"/>
       <use transform="translate(1167.314453 0.015625)" xlink:href="#DejaVuSans-32"/>
      </g>
     </g>
    </g>
    <g id="ytick_17">
     <g id="line2d_23">
      <g>
       <use style="stroke:#000000;stroke-width:0.8;" x="143.9" xlink:href="#mab5f24e94d" y="211.521951"/>
      </g>
     </g>
     <g id="text_24">
      <!--  $\delta$ cte $\Delta G_{cav}$  -->
      <defs>
       <path d="M 53.609375 52.59375 
L 51.8125 43.703125 
Q 48.578125 46.046875 44.9375 47.21875 
Q 41.3125 48.390625 37.40625 48.390625 
Q 33.109375 48.390625 29.21875 46.875 
Q 25.34375 45.359375 22.703125 42.578125 
Q 18.5 38.328125 16.203125 32.609375 
Q 13.921875 26.90625 13.921875 20.796875 
Q 13.921875 13.421875 17.609375 9.8125 
Q 21.296875 6.203125 28.8125 6.203125 
Q 32.515625 6.203125 36.6875 7.328125 
Q 40.875 8.453125 45.40625 10.6875 
L 43.703125 1.8125 
Q 39.796875 0.203125 35.671875 -0.609375 
Q 31.546875 -1.421875 27.203125 -1.421875 
Q 16.3125 -1.421875 10.453125 4.015625 
Q 4.59375 9.46875 4.59375 19.578125 
Q 4.59375 28.078125 7.640625 35.234375 
Q 10.6875 42.390625 16.703125 48.09375 
Q 20.796875 52 26.3125 54 
Q 31.84375 56 38.375 56 
Q 42.1875 56 45.9375 55.140625 
Q 49.703125 54.296875 53.609375 52.59375 
z
" id="DejaVuSans-Oblique-99"/>
       <path d="M 53.71875 31.203125 
L 47.609375 0 
L 38.625 0 
L 40.28125 8.296875 
Q 36.328125 3.421875 31.265625 1 
Q 26.21875 -1.421875 20.015625 -1.421875 
Q 13.03125 -1.421875 8.5625 2.84375 
Q 4.109375 7.125 4.109375 13.8125 
Q 4.109375 23.390625 11.75 28.953125 
Q 19.390625 34.515625 32.8125 34.515625 
L 45.3125 34.515625 
L 45.796875 36.921875 
Q 45.90625 37.3125 45.953125 37.765625 
Q 46 38.234375 46 39.203125 
Q 46 43.5625 42.453125 45.96875 
Q 38.921875 48.390625 32.515625 48.390625 
Q 28.125 48.390625 23.5 47.265625 
Q 18.890625 46.140625 14.015625 43.890625 
L 15.578125 52.203125 
Q 20.65625 54.109375 25.515625 55.046875 
Q 30.375 56 34.90625 56 
Q 44.578125 56 49.625 51.796875 
Q 54.6875 47.609375 54.6875 39.59375 
Q 54.6875 37.984375 54.4375 35.8125 
Q 54.203125 33.640625 53.71875 31.203125 
z
M 44 27.484375 
L 35.015625 27.484375 
Q 23.96875 27.484375 18.671875 24.53125 
Q 13.375 21.578125 13.375 15.375 
Q 13.375 11.078125 16.078125 8.640625 
Q 18.796875 6.203125 23.578125 6.203125 
Q 30.90625 6.203125 36.375 11.453125 
Q 41.84375 16.703125 43.609375 25.484375 
z
" id="DejaVuSans-Oblique-97"/>
       <path d="M 7.171875 54.6875 
L 16.703125 54.6875 
L 24.703125 8.203125 
L 50.875 54.6875 
L 60.40625 54.6875 
L 29.296875 0 
L 17.1875 0 
z
" id="DejaVuSans-Oblique-118"/>
      </defs>
      <g transform="translate(75.3 215.32117)scale(0.1 -0.1)">
       <use transform="translate(0 0.78125)" xlink:href="#DejaVuSans-32"/>
       <use transform="translate(31.787109 0.78125)" xlink:href="#DejaVuSans-Oblique-948"/>
       <use transform="translate(92.96875 0.78125)" xlink:href="#DejaVuSans-32"/>
       <use transform="translate(124.755859 0.78125)" xlink:href="#DejaVuSans-99"/>
       <use transform="translate(179.736328 0.78125)" xlink:href="#DejaVuSans-116"/>
       <use transform="translate(218.945312 0.78125)" xlink:href="#DejaVuSans-101"/>
       <use transform="translate(280.46875 0.78125)" xlink:href="#DejaVuSans-32"/>
       <use transform="translate(312.255859 0.78125)" xlink:href="#DejaVuSans-916"/>
       <use transform="translate(380.664062 0.78125)" xlink:href="#DejaVuSans-Oblique-71"/>
       <use transform="translate(458.154297 -15.625)scale(0.7)" xlink:href="#DejaVuSans-Oblique-99"/>
       <use transform="translate(496.640625 -15.625)scale(0.7)" xlink:href="#DejaVuSans-Oblique-97"/>
       <use transform="translate(539.536133 -15.625)scale(0.7)" xlink:href="#DejaVuSans-Oblique-118"/>
       <use transform="translate(583.696289 0.78125)" xlink:href="#DejaVuSans-32"/>
      </g>
     </g>
    </g>
    <g id="ytick_18">
     <g id="line2d_24">
      <g>
       <use style="stroke:#000000;stroke-width:0.8;" x="143.9" xlink:href="#mab5f24e94d" y="199.229268"/>
      </g>
     </g>
     <g id="text_25">
      <!--  $\delta$ Ponderado $\Delta G_{cav}$  -->
      <g transform="translate(37.2 203.028487)scale(0.1 -0.1)">
       <use transform="translate(0 0.015625)" xlink:href="#DejaVuSans-32"/>
       <use transform="translate(31.787109 0.015625)" xlink:href="#DejaVuSans-Oblique-948"/>
       <use transform="translate(92.96875 0.015625)" xlink:href="#DejaVuSans-32"/>
       <use transform="translate(124.755859 0.015625)" xlink:href="#DejaVuSans-80"/>
       <use transform="translate(185.058594 0.015625)" xlink:href="#DejaVuSans-111"/>
       <use transform="translate(246.240234 0.015625)" xlink:href="#DejaVuSans-110"/>
       <use transform="translate(309.619141 0.015625)" xlink:href="#DejaVuSans-100"/>
       <use transform="translate(373.095703 0.015625)" xlink:href="#DejaVuSans-101"/>
       <use transform="translate(434.619141 0.015625)" xlink:href="#DejaVuSans-114"/>
       <use transform="translate(475.732422 0.015625)" xlink:href="#DejaVuSans-97"/>
       <use transform="translate(537.011719 0.015625)" xlink:href="#DejaVuSans-100"/>
       <use transform="translate(600.488281 0.015625)" xlink:href="#DejaVuSans-111"/>
       <use transform="translate(661.669922 0.015625)" xlink:href="#DejaVuSans-32"/>
       <use transform="translate(693.457031 0.015625)" xlink:href="#DejaVuSans-916"/>
       <use transform="translate(761.865234 0.015625)" xlink:href="#DejaVuSans-Oblique-71"/>
       <use transform="translate(839.355469 -16.390625)scale(0.7)" xlink:href="#DejaVuSans-Oblique-99"/>
       <use transform="translate(877.841797 -16.390625)scale(0.7)" xlink:href="#DejaVuSans-Oblique-97"/>
       <use transform="translate(920.737305 -16.390625)scale(0.7)" xlink:href="#DejaVuSans-Oblique-118"/>
       <use transform="translate(964.897461 0.015625)" xlink:href="#DejaVuSans-32"/>
      </g>
     </g>
    </g>
    <g id="ytick_19">
     <g id="line2d_25">
      <g>
       <use style="stroke:#000000;stroke-width:0.8;" x="143.9" xlink:href="#mab5f24e94d" y="186.936585"/>
      </g>
     </g>
     <g id="text_26">
      <!--  $\delta$ Promedio $\Delta G_{cav}$  -->
      <g transform="translate(43.5 190.735804)scale(0.1 -0.1)">
       <use transform="translate(0 0.015625)" xlink:href="#DejaVuSans-32"/>
       <use transform="translate(31.787109 0.015625)" xlink:href="#DejaVuSans-Oblique-948"/>
       <use transform="translate(92.96875 0.015625)" xlink:href="#DejaVuSans-32"/>
       <use transform="translate(124.755859 0.015625)" xlink:href="#DejaVuSans-80"/>
       <use transform="translate(185.058594 0.015625)" xlink:href="#DejaVuSans-114"/>
       <use transform="translate(226.171875 0.015625)" xlink:href="#DejaVuSans-111"/>
       <use transform="translate(287.353516 0.015625)" xlink:href="#DejaVuSans-109"/>
       <use transform="translate(384.765625 0.015625)" xlink:href="#DejaVuSans-101"/>
       <use transform="translate(446.289062 0.015625)" xlink:href="#DejaVuSans-100"/>
       <use transform="translate(509.765625 0.015625)" xlink:href="#DejaVuSans-105"/>
       <use transform="translate(537.548828 0.015625)" xlink:href="#DejaVuSans-111"/>
       <use transform="translate(598.730469 0.015625)" xlink:href="#DejaVuSans-32"/>
       <use transform="translate(630.517578 0.015625)" xlink:href="#DejaVuSans-916"/>
       <use transform="translate(698.925781 0.015625)" xlink:href="#DejaVuSans-Oblique-71"/>
       <use transform="translate(776.416016 -16.390625)scale(0.7)" xlink:href="#DejaVuSans-Oblique-99"/>
       <use transform="translate(814.902344 -16.390625)scale(0.7)" xlink:href="#DejaVuSans-Oblique-97"/>
       <use transform="translate(857.797852 -16.390625)scale(0.7)" xlink:href="#DejaVuSans-Oblique-118"/>
       <use transform="translate(901.958008 0.015625)" xlink:href="#DejaVuSans-32"/>
      </g>
     </g>
    </g>
    <g id="ytick_20">
     <g id="line2d_26">
      <g>
       <use style="stroke:#000000;stroke-width:0.8;" x="143.9" xlink:href="#mab5f24e94d" y="174.643902"/>
      </g>
     </g>
     <g id="text_27">
      <!--  $\delta$ Malla ponderado $\Delta G_{cav}$  -->
      <g transform="translate(7.2 178.443902)scale(0.1 -0.1)">
       <use transform="translate(0 0.015625)" xlink:href="#DejaVuSans-32"/>
       <use transform="translate(31.787109 0.015625)" xlink:href="#DejaVuSans-Oblique-948"/>
       <use transform="translate(92.96875 0.015625)" xlink:href="#DejaVuSans-32"/>
       <use transform="translate(124.755859 0.015625)" xlink:href="#DejaVuSans-77"/>
       <use transform="translate(211.035156 0.015625)" xlink:href="#DejaVuSans-97"/>
       <use transform="translate(272.314453 0.015625)" xlink:href="#DejaVuSans-108"/>
       <use transform="translate(300.097656 0.015625)" xlink:href="#DejaVuSans-108"/>
       <use transform="translate(327.880859 0.015625)" xlink:href="#DejaVuSans-97"/>
       <use transform="translate(389.160156 0.015625)" xlink:href="#DejaVuSans-32"/>
       <use transform="translate(420.947266 0.015625)" xlink:href="#DejaVuSans-112"/>
       <use transform="translate(484.423828 0.015625)" xlink:href="#DejaVuSans-111"/>
       <use transform="translate(545.605469 0.015625)" xlink:href="#DejaVuSans-110"/>
       <use transform="translate(608.984375 0.015625)" xlink:href="#DejaVuSans-100"/>
       <use transform="translate(672.460938 0.015625)" xlink:href="#DejaVuSans-101"/>
       <use transform="translate(733.984375 0.015625)" xlink:href="#DejaVuSans-114"/>
       <use transform="translate(775.097656 0.015625)" xlink:href="#DejaVuSans-97"/>
       <use transform="translate(836.376953 0.015625)" xlink:href="#DejaVuSans-100"/>
       <use transform="translate(899.853516 0.015625)" xlink:href="#DejaVuSans-111"/>
       <use transform="translate(961.035156 0.015625)" xlink:href="#DejaVuSans-32"/>
       <use transform="translate(992.822266 0.015625)" xlink:href="#DejaVuSans-916"/>
       <use transform="translate(1061.230469 0.015625)" xlink:href="#DejaVuSans-Oblique-71"/>
       <use transform="translate(1138.720703 -16.390625)scale(0.7)" xlink:href="#DejaVuSans-Oblique-99"/>
       <use transform="translate(1177.207031 -16.390625)scale(0.7)" xlink:href="#DejaVuSans-Oblique-97"/>
       <use transform="translate(1220.102539 -16.390625)scale(0.7)" xlink:href="#DejaVuSans-Oblique-118"/>
       <use transform="translate(1264.262695 0.015625)" xlink:href="#DejaVuSans-32"/>
      </g>
     </g>
    </g>
    <g id="ytick_21">
     <g id="line2d_27">
      <g>
       <use style="stroke:#000000;stroke-width:0.8;" x="143.9" xlink:href="#mab5f24e94d" y="162.35122"/>
      </g>
     </g>
     <g id="text_28">
      <!--  $\delta$ Malla promedio $\Delta G_{cav}$  -->
      <g transform="translate(13.5 166.15122)scale(0.1 -0.1)">
       <use transform="translate(0 0.015625)" xlink:href="#DejaVuSans-32"/>
       <use transform="translate(31.787109 0.015625)" xlink:href="#DejaVuSans-Oblique-948"/>
       <use transform="translate(92.96875 0.015625)" xlink:href="#DejaVuSans-32"/>
       <use transform="translate(124.755859 0.015625)" xlink:href="#DejaVuSans-77"/>
       <use transform="translate(211.035156 0.015625)" xlink:href="#DejaVuSans-97"/>
       <use transform="translate(272.314453 0.015625)" xlink:href="#DejaVuSans-108"/>
       <use transform="translate(300.097656 0.015625)" xlink:href="#DejaVuSans-108"/>
       <use transform="translate(327.880859 0.015625)" xlink:href="#DejaVuSans-97"/>
       <use transform="translate(389.160156 0.015625)" xlink:href="#DejaVuSans-32"/>
       <use transform="translate(420.947266 0.015625)" xlink:href="#DejaVuSans-112"/>
       <use transform="translate(484.423828 0.015625)" xlink:href="#DejaVuSans-114"/>
       <use transform="translate(525.537109 0.015625)" xlink:href="#DejaVuSans-111"/>
       <use transform="translate(586.71875 0.015625)" xlink:href="#DejaVuSans-109"/>
       <use transform="translate(684.130859 0.015625)" xlink:href="#DejaVuSans-101"/>
       <use transform="translate(745.654297 0.015625)" xlink:href="#DejaVuSans-100"/>
       <use transform="translate(809.130859 0.015625)" xlink:href="#DejaVuSans-105"/>
       <use transform="translate(836.914062 0.015625)" xlink:href="#DejaVuSans-111"/>
       <use transform="translate(898.095703 0.015625)" xlink:href="#DejaVuSans-32"/>
       <use transform="translate(929.882812 0.015625)" xlink:href="#DejaVuSans-916"/>
       <use transform="translate(998.291016 0.015625)" xlink:href="#DejaVuSans-Oblique-71"/>
       <use transform="translate(1075.78125 -16.390625)scale(0.7)" xlink:href="#DejaVuSans-Oblique-99"/>
       <use transform="translate(1114.267578 -16.390625)scale(0.7)" xlink:href="#DejaVuSans-Oblique-97"/>
       <use transform="translate(1157.163086 -16.390625)scale(0.7)" xlink:href="#DejaVuSans-Oblique-118"/>
       <use transform="translate(1201.323242 0.015625)" xlink:href="#DejaVuSans-32"/>
      </g>
     </g>
    </g>
    <g id="ytick_22">
     <g id="line2d_28">
      <g>
       <use style="stroke:#000000;stroke-width:0.8;" x="143.9" xlink:href="#mab5f24e94d" y="137.765854"/>
      </g>
     </g>
     <g id="text_29">
      <!-- Concavidad área ✓ -->
      <defs>
       <path d="M 34.28125 27.484375 
Q 23.390625 27.484375 19.1875 25 
Q 14.984375 22.515625 14.984375 16.5 
Q 14.984375 11.71875 18.140625 8.90625 
Q 21.296875 6.109375 26.703125 6.109375 
Q 34.1875 6.109375 38.703125 11.40625 
Q 43.21875 16.703125 43.21875 25.484375 
L 43.21875 27.484375 
z
M 52.203125 31.203125 
L 52.203125 0 
L 43.21875 0 
L 43.21875 8.296875 
Q 40.140625 3.328125 35.546875 0.953125 
Q 30.953125 -1.421875 24.3125 -1.421875 
Q 15.921875 -1.421875 10.953125 3.296875 
Q 6 8.015625 6 15.921875 
Q 6 25.140625 12.171875 29.828125 
Q 18.359375 34.515625 30.609375 34.515625 
L 43.21875 34.515625 
L 43.21875 35.40625 
Q 43.21875 41.609375 39.140625 45 
Q 35.0625 48.390625 27.6875 48.390625 
Q 23 48.390625 18.546875 47.265625 
Q 14.109375 46.140625 10.015625 43.890625 
L 10.015625 52.203125 
Q 14.9375 54.109375 19.578125 55.046875 
Q 24.21875 56 28.609375 56 
Q 40.484375 56 46.34375 49.84375 
Q 52.203125 43.703125 52.203125 31.203125 
z
M 35.796875 79.984375 
L 45.515625 79.984375 
L 29.59375 61.625 
L 22.125 61.625 
z
" id="DejaVuSans-225"/>
       <path d="M 22.125 31.9375 
Q 24.03125 31.9375 25 28.8125 
Q 26.953125 22.953125 27.78125 22.953125 
Q 28.421875 22.953125 29.109375 23.921875 
Q 42.828125 45.90625 54.5 59.46875 
Q 57.515625 62.984375 64.109375 62.984375 
Q 65.671875 62.984375 66.203125 62.6875 
Q 66.75 62.40625 66.75 61.96875 
Q 66.75 61.28125 65.140625 59.28125 
Q 46.296875 36.625 30.171875 11.421875 
Q 29.046875 9.671875 25.59375 9.671875 
Q 22.078125 9.671875 21.4375 9.96875 
Q 19.78125 10.6875 17.53125 17.4375 
Q 14.984375 24.90625 14.984375 26.8125 
Q 14.984375 28.859375 18.40625 30.765625 
Q 20.515625 31.9375 22.125 31.9375 
z
" id="DejaVuSans-10003"/>
      </defs>
      <g transform="translate(41.059375 141.565072)scale(0.1 -0.1)">
       <use xlink:href="#DejaVuSans-67"/>
       <use x="69.824219" xlink:href="#DejaVuSans-111"/>
       <use x="131.005859" xlink:href="#DejaVuSans-110"/>
       <use x="194.384766" xlink:href="#DejaVuSans-99"/>
       <use x="249.365234" xlink:href="#DejaVuSans-97"/>
       <use x="310.644531" xlink:href="#DejaVuSans-118"/>
       <use x="369.824219" xlink:href="#DejaVuSans-105"/>
       <use x="397.607422" xlink:href="#DejaVuSans-100"/>
       <use x="461.083984" xlink:href="#DejaVuSans-97"/>
       <use x="522.363281" xlink:href="#DejaVuSans-100"/>
       <use x="585.839844" xlink:href="#DejaVuSans-32"/>
       <use x="617.626953" xlink:href="#DejaVuSans-225"/>
       <use x="678.90625" xlink:href="#DejaVuSans-114"/>
       <use x="719.988281" xlink:href="#DejaVuSans-101"/>
       <use x="781.511719" xlink:href="#DejaVuSans-97"/>
       <use x="842.791016" xlink:href="#DejaVuSans-32"/>
       <use x="874.578125" xlink:href="#DejaVuSans-10003"/>
      </g>
     </g>
    </g>
    <g id="ytick_23">
     <g id="line2d_29">
      <g>
       <use style="stroke:#000000;stroke-width:0.8;" x="143.9" xlink:href="#mab5f24e94d" y="125.473171"/>
      </g>
     </g>
     <g id="text_30">
      <!-- Concavidad área X -->
      <defs>
       <path d="M 6.296875 72.90625 
L 16.890625 72.90625 
L 35.015625 45.796875 
L 53.21875 72.90625 
L 63.8125 72.90625 
L 40.375 37.890625 
L 65.375 0 
L 54.78125 0 
L 34.28125 31 
L 13.625 0 
L 2.984375 0 
L 29 38.921875 
z
" id="DejaVuSans-88"/>
      </defs>
      <g transform="translate(42.589062 129.272389)scale(0.1 -0.1)">
       <use xlink:href="#DejaVuSans-67"/>
       <use x="69.824219" xlink:href="#DejaVuSans-111"/>
       <use x="131.005859" xlink:href="#DejaVuSans-110"/>
       <use x="194.384766" xlink:href="#DejaVuSans-99"/>
       <use x="249.365234" xlink:href="#DejaVuSans-97"/>
       <use x="310.644531" xlink:href="#DejaVuSans-118"/>
       <use x="369.824219" xlink:href="#DejaVuSans-105"/>
       <use x="397.607422" xlink:href="#DejaVuSans-100"/>
       <use x="461.083984" xlink:href="#DejaVuSans-97"/>
       <use x="522.363281" xlink:href="#DejaVuSans-100"/>
       <use x="585.839844" xlink:href="#DejaVuSans-32"/>
       <use x="617.626953" xlink:href="#DejaVuSans-225"/>
       <use x="678.90625" xlink:href="#DejaVuSans-114"/>
       <use x="719.988281" xlink:href="#DejaVuSans-101"/>
       <use x="781.511719" xlink:href="#DejaVuSans-97"/>
       <use x="842.791016" xlink:href="#DejaVuSans-32"/>
       <use x="874.578125" xlink:href="#DejaVuSans-88"/>
      </g>
     </g>
    </g>
    <g id="ytick_24">
     <g id="line2d_30">
      <g>
       <use style="stroke:#000000;stroke-width:0.8;" x="143.9" xlink:href="#mab5f24e94d" y="100.887805"/>
      </g>
     </g>
     <g id="text_31">
      <!-- Concavidad Tolman ✓ -->
      <defs>
       <path d="M -0.296875 72.90625 
L 61.375 72.90625 
L 61.375 64.59375 
L 35.5 64.59375 
L 35.5 0 
L 25.59375 0 
L 25.59375 64.59375 
L -0.296875 64.59375 
z
" id="DejaVuSans-84"/>
      </defs>
      <g transform="translate(26.392188 104.687024)scale(0.1 -0.1)">
       <use xlink:href="#DejaVuSans-67"/>
       <use x="69.824219" xlink:href="#DejaVuSans-111"/>
       <use x="131.005859" xlink:href="#DejaVuSans-110"/>
       <use x="194.384766" xlink:href="#DejaVuSans-99"/>
       <use x="249.365234" xlink:href="#DejaVuSans-97"/>
       <use x="310.644531" xlink:href="#DejaVuSans-118"/>
       <use x="369.824219" xlink:href="#DejaVuSans-105"/>
       <use x="397.607422" xlink:href="#DejaVuSans-100"/>
       <use x="461.083984" xlink:href="#DejaVuSans-97"/>
       <use x="522.363281" xlink:href="#DejaVuSans-100"/>
       <use x="585.839844" xlink:href="#DejaVuSans-32"/>
       <use x="617.626953" xlink:href="#DejaVuSans-84"/>
       <use x="678.445312" xlink:href="#DejaVuSans-111"/>
       <use x="739.626953" xlink:href="#DejaVuSans-108"/>
       <use x="767.410156" xlink:href="#DejaVuSans-109"/>
       <use x="864.822266" xlink:href="#DejaVuSans-97"/>
       <use x="926.101562" xlink:href="#DejaVuSans-110"/>
       <use x="989.480469" xlink:href="#DejaVuSans-32"/>
       <use x="1021.267578" xlink:href="#DejaVuSans-10003"/>
      </g>
     </g>
    </g>
    <g id="ytick_25">
     <g id="line2d_31">
      <g>
       <use style="stroke:#000000;stroke-width:0.8;" x="143.9" xlink:href="#mab5f24e94d" y="88.595122"/>
      </g>
     </g>
     <g id="text_32">
      <!-- Concavidad Tolman X -->
      <g transform="translate(27.921875 92.394341)scale(0.1 -0.1)">
       <use xlink:href="#DejaVuSans-67"/>
       <use x="69.824219" xlink:href="#DejaVuSans-111"/>
       <use x="131.005859" xlink:href="#DejaVuSans-110"/>
       <use x="194.384766" xlink:href="#DejaVuSans-99"/>
       <use x="249.365234" xlink:href="#DejaVuSans-97"/>
       <use x="310.644531" xlink:href="#DejaVuSans-118"/>
       <use x="369.824219" xlink:href="#DejaVuSans-105"/>
       <use x="397.607422" xlink:href="#DejaVuSans-100"/>
       <use x="461.083984" xlink:href="#DejaVuSans-97"/>
       <use x="522.363281" xlink:href="#DejaVuSans-100"/>
       <use x="585.839844" xlink:href="#DejaVuSans-32"/>
       <use x="617.626953" xlink:href="#DejaVuSans-84"/>
       <use x="678.445312" xlink:href="#DejaVuSans-111"/>
       <use x="739.626953" xlink:href="#DejaVuSans-108"/>
       <use x="767.410156" xlink:href="#DejaVuSans-109"/>
       <use x="864.822266" xlink:href="#DejaVuSans-97"/>
       <use x="926.101562" xlink:href="#DejaVuSans-110"/>
       <use x="989.480469" xlink:href="#DejaVuSans-32"/>
       <use x="1021.267578" xlink:href="#DejaVuSans-88"/>
      </g>
     </g>
    </g>
    <g id="ytick_26">
     <g id="line2d_32">
      <g>
       <use style="stroke:#000000;stroke-width:0.8;" x="143.9" xlink:href="#mab5f24e94d" y="64.009756"/>
      </g>
     </g>
     <g id="text_33">
      <!-- Concavidad curvatura ✓ -->
      <g transform="translate(15.085938 67.808975)scale(0.1 -0.1)">
       <use xlink:href="#DejaVuSans-67"/>
       <use x="69.824219" xlink:href="#DejaVuSans-111"/>
       <use x="131.005859" xlink:href="#DejaVuSans-110"/>
       <use x="194.384766" xlink:href="#DejaVuSans-99"/>
       <use x="249.365234" xlink:href="#DejaVuSans-97"/>
       <use x="310.644531" xlink:href="#DejaVuSans-118"/>
       <use x="369.824219" xlink:href="#DejaVuSans-105"/>
       <use x="397.607422" xlink:href="#DejaVuSans-100"/>
       <use x="461.083984" xlink:href="#DejaVuSans-97"/>
       <use x="522.363281" xlink:href="#DejaVuSans-100"/>
       <use x="585.839844" xlink:href="#DejaVuSans-32"/>
       <use x="617.626953" xlink:href="#DejaVuSans-99"/>
       <use x="672.607422" xlink:href="#DejaVuSans-117"/>
       <use x="735.986328" xlink:href="#DejaVuSans-114"/>
       <use x="777.099609" xlink:href="#DejaVuSans-118"/>
       <use x="836.279297" xlink:href="#DejaVuSans-97"/>
       <use x="897.558594" xlink:href="#DejaVuSans-116"/>
       <use x="936.767578" xlink:href="#DejaVuSans-117"/>
       <use x="1000.146484" xlink:href="#DejaVuSans-114"/>
       <use x="1041.259766" xlink:href="#DejaVuSans-97"/>
       <use x="1102.539062" xlink:href="#DejaVuSans-32"/>
       <use x="1134.326172" xlink:href="#DejaVuSans-10003"/>
      </g>
     </g>
    </g>
    <g id="ytick_27">
     <g id="line2d_33">
      <g>
       <use style="stroke:#000000;stroke-width:0.8;" x="143.9" xlink:href="#mab5f24e94d" y="51.717073"/>
      </g>
     </g>
     <g id="text_34">
      <!-- Concavidad curvatura X -->
      <g transform="translate(16.615625 55.516292)scale(0.1 -0.1)">
       <use xlink:href="#DejaVuSans-67"/>
       <use x="69.824219" xlink:href="#DejaVuSans-111"/>
       <use x="131.005859" xlink:href="#DejaVuSans-110"/>
       <use x="194.384766" xlink:href="#DejaVuSans-99"/>
       <use x="249.365234" xlink:href="#DejaVuSans-97"/>
       <use x="310.644531" xlink:href="#DejaVuSans-118"/>
       <use x="369.824219" xlink:href="#DejaVuSans-105"/>
       <use x="397.607422" xlink:href="#DejaVuSans-100"/>
       <use x="461.083984" xlink:href="#DejaVuSans-97"/>
       <use x="522.363281" xlink:href="#DejaVuSans-100"/>
       <use x="585.839844" xlink:href="#DejaVuSans-32"/>
       <use x="617.626953" xlink:href="#DejaVuSans-99"/>
       <use x="672.607422" xlink:href="#DejaVuSans-117"/>
       <use x="735.986328" xlink:href="#DejaVuSans-114"/>
       <use x="777.099609" xlink:href="#DejaVuSans-118"/>
       <use x="836.279297" xlink:href="#DejaVuSans-97"/>
       <use x="897.558594" xlink:href="#DejaVuSans-116"/>
       <use x="936.767578" xlink:href="#DejaVuSans-117"/>
       <use x="1000.146484" xlink:href="#DejaVuSans-114"/>
       <use x="1041.259766" xlink:href="#DejaVuSans-97"/>
       <use x="1102.539062" xlink:href="#DejaVuSans-32"/>
       <use x="1134.326172" xlink:href="#DejaVuSans-88"/>
      </g>
     </g>
    </g>
   </g>
   <g id="patch_30">
    <path d="M 143.9 470.16 
L 143.9 26.64 
" style="fill:none;stroke:#000000;stroke-linecap:square;stroke-linejoin:miter;stroke-width:0.8;"/>
   </g>
   <g id="patch_31">
    <path d="M 590.3 470.16 
L 590.3 26.64 
" style="fill:none;stroke:#000000;stroke-linecap:square;stroke-linejoin:miter;stroke-width:0.8;"/>
   </g>
   <g id="patch_32">
    <path d="M 143.9 470.16 
L 590.3 470.16 
" style="fill:none;stroke:#000000;stroke-linecap:square;stroke-linejoin:miter;stroke-width:0.8;"/>
   </g>
   <g id="patch_33">
    <path d="M 143.9 26.64 
L 590.3 26.64 
" style="fill:none;stroke:#000000;stroke-linecap:square;stroke-linejoin:miter;stroke-width:0.8;"/>
   </g>
   <g id="text_35">
    <!-- Comparación entre las distintas consideraciones para $\Delta G_{cav}$ -->
    <defs>
     <path d="M 30.609375 48.390625 
Q 23.390625 48.390625 19.1875 42.75 
Q 14.984375 37.109375 14.984375 27.296875 
Q 14.984375 17.484375 19.15625 11.84375 
Q 23.34375 6.203125 30.609375 6.203125 
Q 37.796875 6.203125 41.984375 11.859375 
Q 46.1875 17.53125 46.1875 27.296875 
Q 46.1875 37.015625 41.984375 42.703125 
Q 37.796875 48.390625 30.609375 48.390625 
z
M 30.609375 56 
Q 42.328125 56 49.015625 48.375 
Q 55.71875 40.765625 55.71875 27.296875 
Q 55.71875 13.875 49.015625 6.21875 
Q 42.328125 -1.421875 30.609375 -1.421875 
Q 18.84375 -1.421875 12.171875 6.21875 
Q 5.515625 13.875 5.515625 27.296875 
Q 5.515625 40.765625 12.171875 48.375 
Q 18.84375 56 30.609375 56 
z
M 37.40625 79.984375 
L 47.125 79.984375 
L 31.203125 61.625 
L 23.734375 61.625 
z
" id="DejaVuSans-243"/>
    </defs>
    <g transform="translate(115.52 20.64)scale(0.168 -0.168)">
     <use transform="translate(0 0.015625)" xlink:href="#DejaVuSans-67"/>
     <use transform="translate(69.824219 0.015625)" xlink:href="#DejaVuSans-111"/>
     <use transform="translate(131.005859 0.015625)" xlink:href="#DejaVuSans-109"/>
     <use transform="translate(228.417969 0.015625)" xlink:href="#DejaVuSans-112"/>
     <use transform="translate(291.894531 0.015625)" xlink:href="#DejaVuSans-97"/>
     <use transform="translate(353.173828 0.015625)" xlink:href="#DejaVuSans-114"/>
     <use transform="translate(394.287109 0.015625)" xlink:href="#DejaVuSans-97"/>
     <use transform="translate(455.566406 0.015625)" xlink:href="#DejaVuSans-99"/>
     <use transform="translate(510.546875 0.015625)" xlink:href="#DejaVuSans-105"/>
     <use transform="translate(538.330078 0.015625)" xlink:href="#DejaVuSans-243"/>
     <use transform="translate(599.511719 0.015625)" xlink:href="#DejaVuSans-110"/>
     <use transform="translate(662.890625 0.015625)" xlink:href="#DejaVuSans-32"/>
     <use transform="translate(694.677734 0.015625)" xlink:href="#DejaVuSans-101"/>
     <use transform="translate(756.201172 0.015625)" xlink:href="#DejaVuSans-110"/>
     <use transform="translate(819.580078 0.015625)" xlink:href="#DejaVuSans-116"/>
     <use transform="translate(858.789062 0.015625)" xlink:href="#DejaVuSans-114"/>
     <use transform="translate(899.902344 0.015625)" xlink:href="#DejaVuSans-101"/>
     <use transform="translate(961.425781 0.015625)" xlink:href="#DejaVuSans-32"/>
     <use transform="translate(993.212891 0.015625)" xlink:href="#DejaVuSans-108"/>
     <use transform="translate(1020.996094 0.015625)" xlink:href="#DejaVuSans-97"/>
     <use transform="translate(1082.275391 0.015625)" xlink:href="#DejaVuSans-115"/>
     <use transform="translate(1134.375 0.015625)" xlink:href="#DejaVuSans-32"/>
     <use transform="translate(1166.162109 0.015625)" xlink:href="#DejaVuSans-100"/>
     <use transform="translate(1229.638672 0.015625)" xlink:href="#DejaVuSans-105"/>
     <use transform="translate(1257.421875 0.015625)" xlink:href="#DejaVuSans-115"/>
     <use transform="translate(1309.521484 0.015625)" xlink:href="#DejaVuSans-116"/>
     <use transform="translate(1348.730469 0.015625)" xlink:href="#DejaVuSans-105"/>
     <use transform="translate(1376.513672 0.015625)" xlink:href="#DejaVuSans-110"/>
     <use transform="translate(1439.892578 0.015625)" xlink:href="#DejaVuSans-116"/>
     <use transform="translate(1479.101562 0.015625)" xlink:href="#DejaVuSans-97"/>
     <use transform="translate(1540.380859 0.015625)" xlink:href="#DejaVuSans-115"/>
     <use transform="translate(1592.480469 0.015625)" xlink:href="#DejaVuSans-32"/>
     <use transform="translate(1624.267578 0.015625)" xlink:href="#DejaVuSans-99"/>
     <use transform="translate(1679.248047 0.015625)" xlink:href="#DejaVuSans-111"/>
     <use transform="translate(1740.429688 0.015625)" xlink:href="#DejaVuSans-110"/>
     <use transform="translate(1803.808594 0.015625)" xlink:href="#DejaVuSans-115"/>
     <use transform="translate(1855.908203 0.015625)" xlink:href="#DejaVuSans-105"/>
     <use transform="translate(1883.691406 0.015625)" xlink:href="#DejaVuSans-100"/>
     <use transform="translate(1947.167969 0.015625)" xlink:href="#DejaVuSans-101"/>
     <use transform="translate(2008.691406 0.015625)" xlink:href="#DejaVuSans-114"/>
     <use transform="translate(2049.804688 0.015625)" xlink:href="#DejaVuSans-97"/>
     <use transform="translate(2111.083984 0.015625)" xlink:href="#DejaVuSans-99"/>
     <use transform="translate(2166.064453 0.015625)" xlink:href="#DejaVuSans-105"/>
     <use transform="translate(2193.847656 0.015625)" xlink:href="#DejaVuSans-111"/>
     <use transform="translate(2255.029297 0.015625)" xlink:href="#DejaVuSans-110"/>
     <use transform="translate(2318.408203 0.015625)" xlink:href="#DejaVuSans-101"/>
     <use transform="translate(2379.931641 0.015625)" xlink:href="#DejaVuSans-115"/>
     <use transform="translate(2432.03125 0.015625)" xlink:href="#DejaVuSans-32"/>
     <use transform="translate(2463.818359 0.015625)" xlink:href="#DejaVuSans-112"/>
     <use transform="translate(2527.294922 0.015625)" xlink:href="#DejaVuSans-97"/>
     <use transform="translate(2588.574219 0.015625)" xlink:href="#DejaVuSans-114"/>
     <use transform="translate(2629.6875 0.015625)" xlink:href="#DejaVuSans-97"/>
     <use transform="translate(2690.966797 0.015625)" xlink:href="#DejaVuSans-32"/>
     <use transform="translate(2722.753906 0.015625)" xlink:href="#DejaVuSans-916"/>
     <use transform="translate(2791.162109 0.015625)" xlink:href="#DejaVuSans-Oblique-71"/>
     <use transform="translate(2868.652344 -16.390625)scale(0.7)" xlink:href="#DejaVuSans-Oblique-99"/>
     <use transform="translate(2907.138672 -16.390625)scale(0.7)" xlink:href="#DejaVuSans-Oblique-97"/>
     <use transform="translate(2950.03418 -16.390625)scale(0.7)" xlink:href="#DejaVuSans-Oblique-118"/>
    </g>
   </g>
  </g>
 </g>
 <defs>
  <clipPath id="p038f26ccc6">
   <rect height="443.52" width="446.4" x="143.9" y="26.64"/>
  </clipPath>
 </defs>
</svg>
